<?xml version="1.0" encoding="utf-8"?>
<!-- Generator: Adobe Illustrator 19.1.0, SVG Export Plug-In . SVG Version: 6.00 Build 0)  -->
<svg version="1.1" id="Layer_1" xmlns="http://www.w3.org/2000/svg" xmlns:xlink="http://www.w3.org/1999/xlink" x="0px" y="0px"
	 viewBox="-206 304.6 198.8 185.4" style="enable-background:new -206 304.6 198.8 185.4;" xml:space="preserve">
<style type="text/css">
	.st0{clip-path:url(#SVGID_2_);}
	.st1{fill:#566345;}
	.st2{fill:#F6D2BA;}
	.st3{fill:#FFFFFF;}
	.st4{fill:#63774E;}
	.st5{fill:#3C2415;}
	.st6{fill:#6F825A;}
	.st7{fill:#231F20;}
	.st8{clip-path:url(#SVGID_4_);}
	.st9{clip-path:url(#SVGID_6_);}
	.st10{fill:#FFFFFF;stroke:#0F2849;stroke-width:1.9073;stroke-miterlimit:10;}
	.st11{fill:#FFFFFF;stroke:#0F2849;stroke-miterlimit:10;}
	.st12{fill:#0F2849;}
	.st13{fill:none;stroke:#BCBEC0;stroke-miterlimit:10;}
</style>
<g>
	<g>
		<defs>
			<rect id="SVGID_1_" x="-160.9" y="286.7" width="154.5" height="204.4"/>
		</defs>
		<clipPath id="SVGID_2_">
			<use xlink:href="#SVGID_1_"  style="overflow:visible;"/>
		</clipPath>
		<g class="st0">
			<path class="st1" d="M-126.8,454.2l-5.6,40.4c3.8,2.6,9.4,1,12.6-2.3c3.2-3.3,4.6-8,5.5-12.5c2.4-11.7,2.6-23.7,2-35.6
				c-0.2-5.1-1.1-10.2,0.2-15.2c1.2-4.5,2.1-9,2.7-13.6c0.8-6.8,3.9-12.8,5.1-19.6c0.2-1.2,0.2-2.9-1-3.2c-0.6-0.1-1.2,0-1.7,0.3
				c-11.4,4.8-13.8,18.3-15.3,29.3L-126.8,454.2z"/>
			<path class="st2" d="M-124.4,345.8c1.7-11.4,5.5-21.4,18.5-25.6c6.7-2.1,14-1.4,20.6,0.9c3.7,1.2,7.1,3.2,10,5.8
				c3.5,3.6,5.5,8.5,6.4,13.4c1.9,9.4,2.1,22.9-3.7,31.1c-2,2.9-10.2,3.8-9.5,7.3c0.9,4.7,0.9,12.4,0.5,18.3
				c-0.1,1.1-1.1,2.4-0.6,3.4c0.5,0.7,1.1,1.3,1.9,1.9c1.9,2,2.8,4.8,2.3,7.5c-0.8,5.4-5.5,10.8-9.1,14.7c-1.9,2.2-4.3,3.9-7.1,4.9
				c-0.5,0.2-1,0.2-1.5,0.1c-0.5-0.2-0.9-0.6-1.1-1.1c-2.9-4.7-5.1-9.8-6.4-15.1c-0.8-3.3-1.4-6.8-0.4-10.1c0.7-2.5,2.3-4.5,2.6-7.1
				c0.5-3.9-0.4-11.1-5.3-11.7l-9.6-1.3c-12.6-1.7-10.3-20.5-9.6-29.3C-125.1,351.1-124.8,348.4-124.4,345.8z"/>
			<path class="st3" d="M-102.9,396.4c1.3,0.1,1.5,2,1.9,2.9c0.6,1.7,1.5,3.3,2.2,4.9c0.7,1.6,1.7,3.5,3.4,3.8
				c1.4,0.1,2.8-0.3,3.8-1.2c2.9-2.1,5.7-4.4,8.3-6.9c0.4-0.4,5.7-5.4,6-4.8c1.9,3.9,0.6,9.1,0.7,13.3c0.1,4.6,0.2,9.3,0.3,13.9
				c0.1,9.2,0.1,18.3,0,27.5c-0.1,9.2-0.3,18.3-0.5,27.5c-0.1,2.4,0.1,27.1-0.7,27.3c-12.2,2.3-24.7,2.5-37,0.5
				c-0.2-8.1-0.2-16.1-0.1-24.2c0.4-21.2,1.8-42.4,4.2-63.5c0.4-4.9,1.4-9.8,2.8-14.5c0.6-1.7,1.7-5,3.2-6
				C-104,396.6-103.4,396.4-102.9,396.4z"/>
			<path class="st4" d="M-49,399c-7.2-3.8-14.9-6.8-22.8-8.8c-2.6-0.7-5.8-1.1-7.8,0.7c-1.1,1.2-1.9,2.6-2.2,4.1
				c0,6.8-4.3,12-8.1,17.1c-3.3,4.4-5.2,9.1-7.4,14.1c-1.4-6-1.9-12.4-2.6-18.5c-0.6-4.9-1.6-10.6-0.7-15.5c0.1-0.5-5.1,1.6-5.6,2
				c-1.6,1.7-2.8,3.7-3.7,5.9c-1.1,2.8-1.9,5.6-2.3,8.6c-1.8,11.5-12.6,18.9-11,31.4c0.7,5.1,3.2,9.5,3.8,14.5
				c0.7,6,2.9,11.7,3.3,17.9c0.4,7-2,13-2.6,19.8c-0.8,8.4-1.3,16.8-1.6,25.3c-0.1,2.2,0,4.8,1.8,6.1c1.6,1.3,4,0.9,6.1,0.5
				c11.2-2.1,21.9-0.3,33-1.2c9-0.7,17.9-2.2,26.6-4.2c-5.2-24.4,0.5-48.1,1.4-72.4l1.8-46.8"/>
			<path class="st5" d="M-88.5,380c-3.6-1.6-6.5-4.3-8.2-7.8c-1.6-3.3-2-9.2,0.9-11.8c2.1-1.9,3.9-4.5,4.1-7.4c0.1-2-1.1-4.2-3-4.5
				c-3-0.5-4.4,2.6-6.2,4.2c-4.3,3.8-7-1.6-10-3.7c-1.1-0.7-2.2-1.2-3.4-1.6l-8.3-2.9c-0.5-0.3-1.1-0.2-1.4,0.2
				c-0.2,0.2-0.2,0.5-0.2,0.8l-0.5,3.6c-5.1-10.3-3.4-24.9,7.7-30.5c3.8-1.9,7.8-2.5,11.6-4.5c7.5-4.1,20.6-1.7,27.7,2.7
				c11,6.9,15.6,19.8,16.3,32.2c0.1,3.8-0.1,7.6-0.8,11.3c-1,6.5-2.6,14.3-7.2,19.3c-2.1,2.3-5.2,3.3-8.2,2.8
				c-3.1-0.6-6.4-0.8-9.5-1.8C-87.6,380.4-88,380.2-88.5,380z"/>
			<path class="st6" d="M-97.7,434.5c0-0.3,0.1-0.7,0.1-1c0.7-5.8,0.1-10-1.2-15.8c-0.1-0.9-0.5-1.8-1.2-2.5
				c0.2,9.3-2.1,18.1-2.7,27.2c-1.6,26.4,1.2,52.8-1.7,79.2c-0.1,0.2,0,0.5,0.1,0.7c0.2,0.2,0.4,0.3,0.7,0.3
				c1.1,0.2,2.3,0.1,3.4-0.2c0.3-0.1,0.6-0.2,0.8-0.4c0.1-0.2,0.2-0.5,0.2-0.7c0.4-5.4-0.4-11.1-0.5-16.5c-0.1-8.5-0.1-17,0-25.5
				c0.1-8.6,0.4-17.1,0.8-25.7c0-10,1.3-19.9,4.1-29.4c0.5-1.6,0.8-3.3,0.9-5c-2.2,1.8-3.7,4.3-4.4,7c0-3.3-0.4-6.6-1.3-9.8"/>
			<path class="st6" d="M-49.5,400.2c13.8,7.4,22.3,21.8,29.3,35.8c4.3,8.6,8.3,17.4,12,26.3c6.8,16.7-18.2,29.4-28.9,36
				c-7.8,4.7-16.7,7.3-24,12.7c-4.1-5-5.7-6.8-8.7-12.6c-0.6-1.1-1.2-2.5-0.7-3.6c0.4-0.7,0.9-1.3,1.6-1.7
				c3.4-2.7,39.7-26.9,37.9-30.4c-7.1-13.3-16.6-25.1-25.6-37c-4.8-6.4-15.4-17.9-8.2-25.6c9.1-9.7,22.9,2.6,27.1,11"/>
			<path class="st7" d="M-62.9,321.9l0.5-0.7c-1.6-0.5-3.3-0.8-5-0.6c-1.1,0-2.1,0.1-3.2,0.3c-3.2,0.9-5.1,4.6-4.7,8
				c0.6,3.4,2.7,6.3,5.6,8c0.6,0.4,1.2,0.7,1.8,0.8c2.4,0.5,4.8-1.4,5.6-3.7c0.8-2.3,0.5-4.8,0.2-7.2l-0.7-5.2l0,0.1"/>
			<path class="st5" d="M-64.9,342.3c0.1-2.7-0.1-5.3-0.6-8c-1.7-8.4-6-18.2,0.6-25.6c5.7-6.4,19-4.7,24.8,0.5
				c6,5.5,9.2,13.4,8.7,21.5c-0.2,3.9-1.3,7.8-3,11.3c-1.9,3.8-4.7,7.7-3,12.2c1.4,3.7,5.4,5.8,7,9.4c2.2,4.9-1,11,1.3,15.9
				c1.4,3.1,4.9,5.2,5.7,8.5c0.9,3.7-0.4,8.6-1,12.3c0.2-1.4-6-5.9-7.3-6.5c-2.3-0.9-5.3-0.5-7.7-0.9c-6-1-13.3-2.6-16.4-8.3
				c-2.5-4.4-1.6-10.2-4.2-14.5c-1.9-3.3-5.5-5.4-6.9-8.9c-1.8-4.6,1-9.3,1.6-13.8C-65.1,345.7-65,344-64.9,342.3z"/>
			<path class="st1" d="M-99.7,455.8c4.3,0.4,8.7,0.4,13.1,0.1c3.2-0.1,6.5,0.3,9.6-0.6c-2.6,0.7-5,2.4-7.4,3.4
				c-3,1.3-6.1,2.5-9.3,3.5c-6,1.7-12.3,1.9-18.5,2c-0.9,0.1-1.8,0-2.6-0.3c-2.3-0.8-3.1-3.5-3.6-5.9c-0.4-2-0.6-4.1-1.1-6.1
				c-0.5-2-1.3-3.9-1.9-5.8c-0.1-0.4-0.2-0.7-0.2-1.1c3.3,3.2,6.4,7,11,8.2c3.5,1.1,7.1,1.9,10.8,2.6
				C-99.9,455.8-99.8,455.8-99.7,455.8z"/>
		</g>
	</g>
	<g>
		<defs>
			<rect id="SVGID_3_" x="-288.6" y="-528.2" width="233.8" height="493.7"/>
		</defs>
		<clipPath id="SVGID_4_">
			<use xlink:href="#SVGID_3_"  style="overflow:visible;"/>
		</clipPath>
		<g id="baa87bd3-6788-41a0-8a65-ebf635e46d40" class="st8">
			<g>
				<defs>
					<rect id="SVGID_5_" x="-288.6" y="-472" width="233.8" height="339.6"/>
				</defs>
				<clipPath id="SVGID_6_">
					<use xlink:href="#SVGID_5_"  style="overflow:visible;"/>
				</clipPath>
				<g class="st9">
					<rect x="-288.7" y="12.8" class="st10" width="233.8" height="333.2"/>
					<rect x="-88.3" y="295" class="st11" width="23.3" height="12.8"/>
					<rect x="-116.3" y="295" class="st11" width="27.9" height="12.8"/>
					<rect x="-139.7" y="295" class="st11" width="23.3" height="12.8"/>
					<rect x="-163.1" y="295" class="st11" width="23.3" height="12.8"/>
					<rect x="-190.7" y="295" class="st11" width="27.9" height="12.8"/>
					<rect x="-218.7" y="295" class="st11" width="27.9" height="12.8"/>
					<rect x="-88.3" y="307.7" class="st11" width="23.3" height="12.8"/>
					<rect x="-116.3" y="307.7" class="st11" width="27.9" height="12.8"/>
					<rect x="-139.7" y="307.7" class="st11" width="23.3" height="12.8"/>
					<rect x="-163.1" y="307.7" class="st11" width="23.3" height="12.8"/>
					<rect x="-190.7" y="307.7" class="st11" width="27.9" height="12.8"/>
					<rect x="-218.7" y="307.7" class="st11" width="27.9" height="12.8"/>
					<rect x="-88.3" y="320.5" class="st11" width="23.3" height="12.8"/>
					<rect x="-116.3" y="320.5" class="st11" width="27.9" height="12.8"/>
					<rect x="-139.7" y="320.5" class="st11" width="23.3" height="12.8"/>
					<rect x="-163.1" y="320.5" class="st11" width="23.3" height="12.8"/>
					<rect x="-190.7" y="320.5" class="st11" width="27.9" height="12.8"/>
					<rect x="-218.7" y="320.5" class="st11" width="27.9" height="12.8"/>
					<rect x="-88.3" y="333.3" class="st11" width="23.3" height="12.8"/>
					<rect x="-116.3" y="333.3" class="st11" width="27.9" height="12.8"/>
					<rect x="-139.7" y="333.3" class="st11" width="23.3" height="12.8"/>
					<rect x="-163.1" y="333.3" class="st11" width="23.3" height="12.8"/>
					<rect x="-190.7" y="333.3" class="st11" width="27.9" height="12.8"/>
					<rect x="-218.7" y="333.3" class="st11" width="27.9" height="12.8"/>
					<rect x="-65" y="295" class="st11" width="9.1" height="12.8"/>
					<rect x="-65" y="307.7" class="st11" width="9.1" height="12.8"/>
					<rect x="-65" y="320.5" class="st11" width="9.1" height="12.8"/>
					<rect x="-65" y="333.3" class="st11" width="9.1" height="12.8"/>
					<path class="st12" d="M-61.5,315.3c0.4-0.4,0.7-0.7,1-0.9c0.2-0.2,0.4-0.4,0.5-0.7c0.1-0.2,0.2-0.4,0.2-0.6
						c0-0.2,0-0.3-0.2-0.4c-0.1-0.1-0.3-0.2-0.4-0.2c-0.1,0-0.3,0-0.4,0.1c-0.1,0.1-0.2,0.2-0.3,0.3l-0.5-0.4
						c0.2-0.2,0.4-0.3,0.6-0.5c0.2-0.1,0.4-0.2,0.7-0.1c0.3,0,0.7,0.1,0.9,0.3c0.2,0.2,0.4,0.5,0.3,0.9c0,0.3-0.1,0.7-0.3,0.9
						c-0.3,0.4-0.6,0.8-0.9,1.1c0.2,0,0.4,0,0.6,0h0.8v0.7h-2.6L-61.5,315.3z"/>
					<path class="st12" d="M-61.5,328.1l0.4-0.5c0.2,0.2,0.5,0.4,0.9,0.4c0.2,0,0.3,0,0.5-0.1c0.1-0.1,0.2-0.2,0.2-0.4
						c0-0.2-0.1-0.3-0.2-0.4c-0.3-0.1-0.5-0.2-0.8-0.1v-0.6c0.2,0,0.5,0,0.7-0.1c0.1-0.1,0.2-0.2,0.2-0.4c0-0.1,0-0.2-0.1-0.3
						c-0.1-0.1-0.2-0.1-0.4-0.1c-0.1,0-0.3,0-0.4,0.1c-0.1,0.1-0.3,0.2-0.4,0.3l-0.4-0.5c0.3-0.3,0.7-0.5,1.2-0.5
						c0.3,0,0.7,0.1,0.9,0.3c0.2,0.2,0.4,0.5,0.3,0.8c0,0.4-0.3,0.7-0.6,0.9v0c0.2,0.1,0.4,0.2,0.6,0.3c0.1,0.2,0.2,0.4,0.2,0.6
						c0,0.2-0.1,0.4-0.2,0.6c-0.1,0.2-0.3,0.3-0.5,0.4c-0.2,0.1-0.5,0.1-0.7,0.1C-60.7,328.7-61.2,328.5-61.5,328.1z"/>
					<path class="st12" d="M-58.7,340.5h-0.5v0.9h-0.8v-0.9h-1.7V340l1.4-2.3h1v2.3h0.5V340.5z M-59.9,339.9v-0.7c0-0.2,0-0.4,0-0.8
						h0c0,0.1-0.1,0.3-0.3,0.5l-0.1,0.1l-0.6,0.9L-59.9,339.9z"/>
				</g>
			</g>
			<rect x="-288.6" y="-528.2" class="st13" width="233.8" height="493.7"/>
		</g>
	</g>
</g>
</svg>
