<?xml version="1.0" encoding="utf-8"?>
<!-- Generator: Adobe Illustrator 19.1.0, SVG Export Plug-In . SVG Version: 6.00 Build 0)  -->
<svg version="1.1" id="b5aea268-9f8a-4b50-ab55-93e18fc99516"
	 xmlns="http://www.w3.org/2000/svg" xmlns:xlink="http://www.w3.org/1999/xlink" x="0px" y="0px" viewBox="-258 373.8 45.3 46.2"
	 style="enable-background:new -258 373.8 45.3 46.2;" xml:space="preserve">
<style type="text/css">
	.st0{fill:#FFFFFF;}
	.st1{fill:none;stroke:#FFFFFF;stroke-width:1.4721;stroke-miterlimit:10;}
	.st2{fill:none;stroke:#FFFFFF;stroke-width:1.6368;stroke-miterlimit:10;}
	.st3{fill:none;stroke:#FFFFFF;stroke-width:1.7405;stroke-miterlimit:10;}
</style>
<title>Artboard 225</title>
<g>
	<path class="st0" d="M-249.5,387.1c-3.2,0.4-5.5,3.3-5.1,6.5c0.4,3.2,3.3,5.5,6.5,5.1c2.9-0.4,5.1-2.8,5.1-5.8c0-0.3,0-0.6-0.1-0.9
		C-245.5,390.7-247.6,389.1-249.5,387.1z"/>
	<path class="st1" d="M-251.5,384.9c-4.4,1.5-6.8,6.3-5.3,10.7c1.5,4.4,6.3,6.8,10.7,5.3c3.4-1.1,5.6-4.3,5.7-7.8
		C-246.9,391-251.5,384.9-251.5,384.9z"/>
	<path class="st0" d="M-222.6,387.1c3.2,0.4,5.4,3.3,5,6.5s-3.3,5.4-6.5,5c-2.9-0.4-5.1-2.8-5.1-5.8c0-0.3,0-0.6,0.1-0.9
		C-226.7,390.7-224.5,389-222.6,387.1z"/>
	<path class="st1" d="M-220.6,384.9c4.4,1.5,6.8,6.3,5.3,10.7c-1.5,4.4-6.3,6.8-10.7,5.3c-3.4-1.1-5.6-4.3-5.7-7.8
		C-225.2,391-220.6,384.9-220.6,384.9z"/>
	<path class="st1" d="M-251.5,384.9c0,0,6.7,8.9,15.5,8.9c7.4,0,11.8-5.3,22.2-16"/>
	<path class="st1" d="M-236.2,388.2c-2.3,0-4.1,1.8-4.1,4.1c0,0.1,0,0.1,0,0.2c0,0.2,0.1,0.4,0.2,0.6c1.3,0.5,2.7,0.7,4.1,0.7
		c1.4,0,2.8-0.2,4.2-0.6c0.1-0.2,0.1-0.4,0.1-0.7C-231.8,390.1-233.8,388.2-236.2,388.2z"/>
	<path class="st1" d="M-244.4,387.1c0,0,7.7-7.7,16.6,0"/>
	<path class="st2" d="M-247.3,383.9c0,0,10.6-10.3,22.5,0"/>
	<path class="st3" d="M-250.3,381.1c0,0,13.8-13.2,28.3,0"/>
	<polygon class="st0" points="-238.3,397.7 -233.7,397.7 -236.1,401.4 	"/>
	<path class="st0" d="M-215.5,377.2l2.9-0.9l-0.6,2.9C-213.2,379.4-213.9,377.5-215.5,377.2z"/>
	<path class="st0" d="M-254.9,415.3c0.1,0.2,0.1,0.3,0.1,0.5v2.7h-0.5v-2.7c0-0.6-0.4-0.9-1.1-0.9h-1.3v-0.4c0.4,0,0.9-0.1,1.3-0.1
		c0.3,0,0.6,0.1,1,0.1C-255.2,414.7-255,415-254.9,415.3z M-257.2,418.5h-0.5V416h0.5V418.5z"/>
	<path class="st0" d="M-253.1,414.6c0.1,0,0.3-0.1,0.5-0.1c0.2,0,0.3,0,0.4,0.1c0.1,0.1,0.3,0.1,0.4,0.1c0.1,0.1,0.2,0.1,0.3,0.2
		s0.1,0.2,0.2,0.3s0.1,0.2,0.1,0.3c0.1,0.2,0.1,0.4,0.1,0.6v1c0,0.1,0,0.2-0.1,0.4c0,0.1-0.1,0.3-0.1,0.4c-0.1,0.1-0.2,0.2-0.3,0.3
		c-0.1,0.1-0.2,0.2-0.4,0.2c-0.2,0.1-0.3,0.1-0.5,0.1h-0.5c-0.1,0-0.2-0.1-0.3-0.1h-0.1v-0.4c0.3,0.1,0.6,0.1,0.9,0.1
		c0.1,0,0.3,0,0.4-0.1c0.1,0,0.2-0.1,0.2-0.1c0.1-0.1,0.1-0.1,0.1-0.2c0.1-0.1,0.1-0.1,0.1-0.2c0.1-0.1,0.1-0.1,0.1-0.2
		c0-0.1,0-0.2,0.1-0.4v-0.6c0-0.2,0-0.4-0.1-0.7c0-0.1-0.1-0.1-0.1-0.2c-0.1-0.1-0.1-0.1-0.1-0.2c-0.1-0.1-0.1-0.1-0.3-0.1
		c-0.2-0.1-0.4-0.1-0.6-0.1c-0.2,0-0.3,0-0.4,0.1c-0.1,0-0.2,0.1-0.3,0.1l-0.1,0.1v-0.4c0,0,0.1,0,0.1-0.1c0,0,0,0,0,0
		C-253.3,414.6-253.2,414.6-253.1,414.6z"/>
	<path class="st0" d="M-250.1,414.6h0.7c0.2,0,0.4,0,0.6,0.1c0.2,0,0.3,0.1,0.4,0.1c0.1,0.1,0.2,0.1,0.3,0.2
		c0.2,0.2,0.3,0.5,0.3,0.8v2.7h-0.5v-2.7c0-0.5-0.4-0.8-1.1-0.8h-0.7V414.6z"/>
	<path class="st0" d="M-243.6,414.6v0.4c-0.4,0.1-0.7,0.5-0.7,0.9v2.7h-0.5v-2.7c0-0.1,0-0.3,0.1-0.4c0-0.1,0.1-0.1,0.1-0.2
		c0.1-0.1,0.1-0.2,0.2-0.2h-2.1v-0.4L-243.6,414.6L-243.6,414.6z"/>
	<path class="st0" d="M-239.6,415.3c0.1,0.2,0.1,0.3,0.1,0.5v2.7h-0.5v-2.7c0-0.5-0.4-0.8-1.1-0.8h-1.3v-0.4c0.4,0,0.9-0.1,1.3-0.1
		c0.3,0,0.6,0.1,1,0.1C-239.9,414.8-239.7,415-239.6,415.3z M-241.9,418.5h-0.5V416h0.5V418.5z"/>
	<path class="st0" d="M-235.1,415.3c0.1,0.2,0.1,0.3,0.1,0.5v2.7h-0.5v-2.7c0-0.5-0.4-0.8-1.1-0.8h-1.3v-0.4c0.4,0,0.9-0.1,1.3-0.1
		c0.3,0,0.6,0.1,1,0.1C-235.4,414.7-235.3,415-235.1,415.3z M-237.5,418.5h-0.5V416h0.5L-237.5,418.5z"/>
	<path class="st0" d="M-229.7,418.5c-0.1,0-0.2,0-0.3-0.1V418h0.2c0.3,0,0.4-0.1,0.4-0.5v-2.6l-0.4,0.1v-0.4c0.5-0.1,1-0.1,1.5-0.1
		c0.3,0,0.6,0.1,0.9,0.1c0.3,0.1,0.5,0.3,0.5,0.6c0.1,0.2,0.1,0.3,0.1,0.5v2.7h-0.5v-2.7c0-0.5-0.4-0.8-1.1-0.8h-0.5v2.6
		c0,0.3-0.1,0.5-0.2,0.7C-229.1,418.5-229.4,418.5-229.7,418.5z"/>
	<path class="st0" d="M-225.1,417.2v-2.6h0.5v2.1l-0.4,0.5L-225.1,417.2z"/>
	<path class="st0" d="M-223.1,417.2v-2.6h0.5v2.1l-0.4,0.5L-223.1,417.2z"/>
	<path class="st0" d="M-221.4,414.6h0.7c0.2,0,0.4,0,0.6,0.1c0.2,0,0.3,0.1,0.4,0.1c0.1,0.1,0.2,0.1,0.3,0.2
		c0.2,0.2,0.3,0.5,0.3,0.8v2.7h-0.5v-2.7c0-0.5-0.4-0.8-1.1-0.8h-0.7V414.6z"/>
	<path class="st0" d="M-215.5,418.4L-215.5,418.4l-0.5,0.1v-0.1c0-0.2,0-0.4,0.1-0.6c0.1-0.2,0.1-0.3,0.1-0.5
		c0.1-0.2,0.1-0.5,0.2-0.8l0.4-1.5h-2.4v-0.4h2.9v0.3l-0.4,1.5c-0.1,0.2-0.1,0.4-0.1,0.4c0,0.1-0.1,0.2-0.1,0.4
		c0,0.1-0.1,0.2-0.1,0.3s-0.1,0.2-0.1,0.3L-215.5,418.4z M-216.9,420h-0.5v-3.8h0.5V420z"/>
	<path class="st0" d="M-254.9,415.3c0.1,0.2,0.1,0.3,0.1,0.5v2.7h-0.5v-2.7c0-0.6-0.4-0.9-1.1-0.9h-1.3v-0.4c0.4,0,0.9-0.1,1.3-0.1
		c0.3,0,0.6,0.1,1,0.1C-255.2,414.7-255,415-254.9,415.3z M-257.2,418.5h-0.5V416h0.5V418.5z"/>
	<path class="st0" d="M-253.1,414.6c0.1,0,0.3-0.1,0.5-0.1c0.2,0,0.3,0,0.4,0.1c0.1,0.1,0.3,0.1,0.4,0.1c0.1,0.1,0.2,0.1,0.3,0.2
		s0.1,0.2,0.2,0.3s0.1,0.2,0.1,0.3c0.1,0.2,0.1,0.4,0.1,0.6v1c0,0.1,0,0.2-0.1,0.4c0,0.1-0.1,0.3-0.1,0.4c-0.1,0.1-0.2,0.2-0.3,0.3
		c-0.1,0.1-0.2,0.2-0.4,0.2c-0.2,0.1-0.3,0.1-0.5,0.1h-0.5c-0.1,0-0.2-0.1-0.3-0.1h-0.1v-0.4c0.3,0.1,0.6,0.1,0.9,0.1
		c0.1,0,0.3,0,0.4-0.1c0.1,0,0.2-0.1,0.2-0.1c0.1-0.1,0.1-0.1,0.1-0.2c0.1-0.1,0.1-0.1,0.1-0.2c0.1-0.1,0.1-0.1,0.1-0.2
		c0-0.1,0-0.2,0.1-0.4v-0.6c0-0.2,0-0.4-0.1-0.7c0-0.1-0.1-0.1-0.1-0.2c-0.1-0.1-0.1-0.1-0.1-0.2c-0.1-0.1-0.1-0.1-0.3-0.1
		c-0.2-0.1-0.4-0.1-0.6-0.1c-0.2,0-0.3,0-0.4,0.1c-0.1,0-0.2,0.1-0.3,0.1l-0.1,0.1v-0.4c0,0,0.1,0,0.1-0.1c0,0,0,0,0,0
		C-253.3,414.6-253.2,414.6-253.1,414.6z"/>
	<path class="st0" d="M-250.1,414.6h0.7c0.2,0,0.4,0,0.6,0.1c0.2,0,0.3,0.1,0.4,0.1c0.1,0.1,0.2,0.1,0.3,0.2
		c0.2,0.2,0.3,0.5,0.3,0.8v2.7h-0.5v-2.7c0-0.5-0.4-0.8-1.1-0.8h-0.7V414.6z"/>
	<path class="st0" d="M-243.6,414.6v0.4c-0.4,0.1-0.7,0.5-0.7,0.9v2.7h-0.5v-2.7c0-0.1,0-0.3,0.1-0.4c0-0.1,0.1-0.1,0.1-0.2
		c0.1-0.1,0.1-0.2,0.2-0.2h-2.1v-0.4L-243.6,414.6L-243.6,414.6z"/>
	<path class="st0" d="M-239.6,415.3c0.1,0.2,0.1,0.3,0.1,0.5v2.7h-0.5v-2.7c0-0.5-0.4-0.8-1.1-0.8h-1.3v-0.4c0.4,0,0.9-0.1,1.3-0.1
		c0.3,0,0.6,0.1,1,0.1C-239.9,414.8-239.7,415-239.6,415.3z M-241.9,418.5h-0.5V416h0.5V418.5z"/>
	<path class="st0" d="M-235.1,415.3c0.1,0.2,0.1,0.3,0.1,0.5v2.7h-0.5v-2.7c0-0.5-0.4-0.8-1.1-0.8h-1.3v-0.4c0.4,0,0.9-0.1,1.3-0.1
		c0.3,0,0.6,0.1,1,0.1C-235.4,414.7-235.3,415-235.1,415.3z M-237.5,418.5h-0.5V416h0.5L-237.5,418.5z"/>
	<path class="st0" d="M-229.7,418.5c-0.1,0-0.2,0-0.3-0.1V418h0.2c0.3,0,0.4-0.1,0.4-0.5v-2.6l-0.4,0.1v-0.4c0.5-0.1,1-0.1,1.5-0.1
		c0.3,0,0.6,0.1,0.9,0.1c0.3,0.1,0.5,0.3,0.5,0.6c0.1,0.2,0.1,0.3,0.1,0.5v2.7h-0.5v-2.7c0-0.5-0.4-0.8-1.1-0.8h-0.5v2.6
		c0,0.3-0.1,0.5-0.2,0.7C-229.1,418.5-229.4,418.5-229.7,418.5z"/>
	<path class="st0" d="M-225.1,417.2v-2.6h0.5v2.1l-0.4,0.5L-225.1,417.2z"/>
	<path class="st0" d="M-223.1,417.2v-2.6h0.5v2.1l-0.4,0.5L-223.1,417.2z"/>
	<path class="st0" d="M-221.4,414.6h0.7c0.2,0,0.4,0,0.6,0.1c0.2,0,0.3,0.1,0.4,0.1c0.1,0.1,0.2,0.1,0.3,0.2
		c0.2,0.2,0.3,0.5,0.3,0.8v2.7h-0.5v-2.7c0-0.5-0.4-0.8-1.1-0.8h-0.7V414.6z"/>
	<path class="st0" d="M-215.5,418.4L-215.5,418.4l-0.5,0.1v-0.1c0-0.2,0-0.4,0.1-0.6c0.1-0.2,0.1-0.3,0.1-0.5
		c0.1-0.2,0.1-0.5,0.2-0.8l0.4-1.5h-2.4v-0.4h2.9v0.3l-0.4,1.5c-0.1,0.2-0.1,0.4-0.1,0.4c0,0.1-0.1,0.2-0.1,0.4
		c0,0.1-0.1,0.2-0.1,0.3s-0.1,0.2-0.1,0.3L-215.5,418.4z M-216.9,420h-0.5v-3.8h0.5V420z"/>
	<path class="st0" d="M-254.9,415.3c0.1,0.2,0.1,0.3,0.1,0.5v2.7h-0.5v-2.7c0-0.6-0.4-0.9-1.1-0.9h-1.3v-0.4c0.4,0,0.9-0.1,1.3-0.1
		c0.3,0,0.6,0.1,1,0.1C-255.2,414.7-255,415-254.9,415.3z M-257.2,418.5h-0.5V416h0.5V418.5z"/>
	<path class="st0" d="M-253.1,414.6c0.1,0,0.3-0.1,0.5-0.1c0.2,0,0.3,0,0.4,0.1c0.1,0.1,0.3,0.1,0.4,0.1c0.1,0.1,0.2,0.1,0.3,0.2
		s0.1,0.2,0.2,0.3s0.1,0.2,0.1,0.3c0.1,0.2,0.1,0.4,0.1,0.6v1c0,0.1,0,0.2-0.1,0.4c0,0.1-0.1,0.3-0.1,0.4c-0.1,0.1-0.2,0.2-0.3,0.3
		c-0.1,0.1-0.2,0.2-0.4,0.2c-0.2,0.1-0.3,0.1-0.5,0.1h-0.5c-0.1,0-0.2-0.1-0.3-0.1h-0.1v-0.4c0.3,0.1,0.6,0.1,0.9,0.1
		c0.1,0,0.3,0,0.4-0.1c0.1,0,0.2-0.1,0.2-0.1c0.1-0.1,0.1-0.1,0.1-0.2c0.1-0.1,0.1-0.1,0.1-0.2c0.1-0.1,0.1-0.1,0.1-0.2
		c0-0.1,0-0.2,0.1-0.4v-0.6c0-0.2,0-0.4-0.1-0.7c0-0.1-0.1-0.1-0.1-0.2c-0.1-0.1-0.1-0.1-0.1-0.2c-0.1-0.1-0.1-0.1-0.3-0.1
		c-0.2-0.1-0.4-0.1-0.6-0.1c-0.2,0-0.3,0-0.4,0.1c-0.1,0-0.2,0.1-0.3,0.1l-0.1,0.1v-0.4c0,0,0.1,0,0.1-0.1c0,0,0,0,0,0
		C-253.3,414.6-253.2,414.6-253.1,414.6z"/>
	<path class="st0" d="M-250.1,414.6h0.7c0.2,0,0.4,0,0.6,0.1c0.2,0,0.3,0.1,0.4,0.1c0.1,0.1,0.2,0.1,0.3,0.2
		c0.2,0.2,0.3,0.5,0.3,0.8v2.7h-0.5v-2.7c0-0.5-0.4-0.8-1.1-0.8h-0.7V414.6z"/>
	<path class="st0" d="M-243.6,414.6v0.4c-0.4,0.1-0.7,0.5-0.7,0.9v2.7h-0.5v-2.7c0-0.1,0-0.3,0.1-0.4c0-0.1,0.1-0.1,0.1-0.2
		c0.1-0.1,0.1-0.2,0.2-0.2h-2.1v-0.4L-243.6,414.6L-243.6,414.6z"/>
	<path class="st0" d="M-239.6,415.3c0.1,0.2,0.1,0.3,0.1,0.5v2.7h-0.5v-2.7c0-0.5-0.4-0.8-1.1-0.8h-1.3v-0.4c0.4,0,0.9-0.1,1.3-0.1
		c0.3,0,0.6,0.1,1,0.1C-239.9,414.8-239.7,415-239.6,415.3z M-241.9,418.5h-0.5V416h0.5V418.5z"/>
	<path class="st0" d="M-235.1,415.3c0.1,0.2,0.1,0.3,0.1,0.5v2.7h-0.5v-2.7c0-0.5-0.4-0.8-1.1-0.8h-1.3v-0.4c0.4,0,0.9-0.1,1.3-0.1
		c0.3,0,0.6,0.1,1,0.1C-235.4,414.7-235.3,415-235.1,415.3z M-237.5,418.5h-0.5V416h0.5L-237.5,418.5z"/>
	<path class="st0" d="M-229.7,418.5c-0.1,0-0.2,0-0.3-0.1V418h0.2c0.3,0,0.4-0.1,0.4-0.5v-2.6l-0.4,0.1v-0.4c0.5-0.1,1-0.1,1.5-0.1
		c0.3,0,0.6,0.1,0.9,0.1c0.3,0.1,0.5,0.3,0.5,0.6c0.1,0.2,0.1,0.3,0.1,0.5v2.7h-0.5v-2.7c0-0.5-0.4-0.8-1.1-0.8h-0.5v2.6
		c0,0.3-0.1,0.5-0.2,0.7C-229.1,418.5-229.4,418.5-229.7,418.5z"/>
	<path class="st0" d="M-225.1,417.2v-2.6h0.5v2.1l-0.4,0.5L-225.1,417.2z"/>
	<path class="st0" d="M-223.1,417.2v-2.6h0.5v2.1l-0.4,0.5L-223.1,417.2z"/>
	<path class="st0" d="M-221.4,414.6h0.7c0.2,0,0.4,0,0.6,0.1c0.2,0,0.3,0.1,0.4,0.1c0.1,0.1,0.2,0.1,0.3,0.2
		c0.2,0.2,0.3,0.5,0.3,0.8v2.7h-0.5v-2.7c0-0.5-0.4-0.8-1.1-0.8h-0.7V414.6z"/>
	<path class="st0" d="M-215.5,418.4L-215.5,418.4l-0.5,0.1v-0.1c0-0.2,0-0.4,0.1-0.6c0.1-0.2,0.1-0.3,0.1-0.5
		c0.1-0.2,0.1-0.5,0.2-0.8l0.4-1.5h-2.4v-0.4h2.9v0.3l-0.4,1.5c-0.1,0.2-0.1,0.4-0.1,0.4c0,0.1-0.1,0.2-0.1,0.4
		c0,0.1-0.1,0.2-0.1,0.3s-0.1,0.2-0.1,0.3L-215.5,418.4z M-216.9,420h-0.5v-3.8h0.5V420z"/>
	<path class="st0" d="M-254.9,415.3c0.1,0.2,0.1,0.3,0.1,0.5v2.7h-0.5v-2.7c0-0.6-0.4-0.9-1.1-0.9h-1.3v-0.4c0.4,0,0.9-0.1,1.3-0.1
		c0.3,0,0.6,0.1,1,0.1C-255.2,414.7-255,415-254.9,415.3z M-257.2,418.5h-0.5V416h0.5V418.5z"/>
	<path class="st0" d="M-253.1,414.6c0.1,0,0.3-0.1,0.5-0.1c0.2,0,0.3,0,0.4,0.1c0.1,0.1,0.3,0.1,0.4,0.1c0.1,0.1,0.2,0.1,0.3,0.2
		s0.1,0.2,0.2,0.3s0.1,0.2,0.1,0.3c0.1,0.2,0.1,0.4,0.1,0.6v1c0,0.1,0,0.2-0.1,0.4c0,0.1-0.1,0.3-0.1,0.4c-0.1,0.1-0.2,0.2-0.3,0.3
		c-0.1,0.1-0.2,0.2-0.4,0.2c-0.2,0.1-0.3,0.1-0.5,0.1h-0.5c-0.1,0-0.2-0.1-0.3-0.1h-0.1v-0.4c0.3,0.1,0.6,0.1,0.9,0.1
		c0.1,0,0.3,0,0.4-0.1c0.1,0,0.2-0.1,0.2-0.1c0.1-0.1,0.1-0.1,0.1-0.2c0.1-0.1,0.1-0.1,0.1-0.2c0.1-0.1,0.1-0.1,0.1-0.2
		c0-0.1,0-0.2,0.1-0.4v-0.6c0-0.2,0-0.4-0.1-0.7c0-0.1-0.1-0.1-0.1-0.2c-0.1-0.1-0.1-0.1-0.1-0.2c-0.1-0.1-0.1-0.1-0.3-0.1
		c-0.2-0.1-0.4-0.1-0.6-0.1c-0.2,0-0.3,0-0.4,0.1c-0.1,0-0.2,0.1-0.3,0.1l-0.1,0.1v-0.4c0,0,0.1,0,0.1-0.1c0,0,0,0,0,0
		C-253.3,414.6-253.2,414.6-253.1,414.6z"/>
	<path class="st0" d="M-250.1,414.6h0.7c0.2,0,0.4,0,0.6,0.1c0.2,0,0.3,0.1,0.4,0.1c0.1,0.1,0.2,0.1,0.3,0.2
		c0.2,0.2,0.3,0.5,0.3,0.8v2.7h-0.5v-2.7c0-0.5-0.4-0.8-1.1-0.8h-0.7V414.6z"/>
	<path class="st0" d="M-243.6,414.6v0.4c-0.4,0.1-0.7,0.5-0.7,0.9v2.7h-0.5v-2.7c0-0.1,0-0.3,0.1-0.4c0-0.1,0.1-0.1,0.1-0.2
		c0.1-0.1,0.1-0.2,0.2-0.2h-2.1v-0.4L-243.6,414.6L-243.6,414.6z"/>
	<path class="st0" d="M-239.6,415.3c0.1,0.2,0.1,0.3,0.1,0.5v2.7h-0.5v-2.7c0-0.5-0.4-0.8-1.1-0.8h-1.3v-0.4c0.4,0,0.9-0.1,1.3-0.1
		c0.3,0,0.6,0.1,1,0.1C-239.9,414.8-239.7,415-239.6,415.3z M-241.9,418.5h-0.5V416h0.5V418.5z"/>
	<path class="st0" d="M-235.1,415.3c0.1,0.2,0.1,0.3,0.1,0.5v2.7h-0.5v-2.7c0-0.5-0.4-0.8-1.1-0.8h-1.3v-0.4c0.4,0,0.9-0.1,1.3-0.1
		c0.3,0,0.6,0.1,1,0.1C-235.4,414.7-235.3,415-235.1,415.3z M-237.5,418.5h-0.5V416h0.5L-237.5,418.5z"/>
	<path class="st0" d="M-229.7,418.5c-0.1,0-0.2,0-0.3-0.1V418h0.2c0.3,0,0.4-0.1,0.4-0.5v-2.6l-0.4,0.1v-0.4c0.5-0.1,1-0.1,1.5-0.1
		c0.3,0,0.6,0.1,0.9,0.1c0.3,0.1,0.5,0.3,0.5,0.6c0.1,0.2,0.1,0.3,0.1,0.5v2.7h-0.5v-2.7c0-0.5-0.4-0.8-1.1-0.8h-0.5v2.6
		c0,0.3-0.1,0.5-0.2,0.7C-229.1,418.5-229.4,418.5-229.7,418.5z"/>
	<path class="st0" d="M-225.1,417.2v-2.6h0.5v2.1l-0.4,0.5L-225.1,417.2z"/>
	<path class="st0" d="M-223.1,417.2v-2.6h0.5v2.1l-0.4,0.5L-223.1,417.2z"/>
	<path class="st0" d="M-221.4,414.6h0.7c0.2,0,0.4,0,0.6,0.1c0.2,0,0.3,0.1,0.4,0.1c0.1,0.1,0.2,0.1,0.3,0.2
		c0.2,0.2,0.3,0.5,0.3,0.8v2.7h-0.5v-2.7c0-0.5-0.4-0.8-1.1-0.8h-0.7V414.6z"/>
	<path class="st0" d="M-215.5,418.4L-215.5,418.4l-0.5,0.1v-0.1c0-0.2,0-0.4,0.1-0.6c0.1-0.2,0.1-0.3,0.1-0.5
		c0.1-0.2,0.1-0.5,0.2-0.8l0.4-1.5h-2.4v-0.4h2.9v0.3l-0.4,1.5c-0.1,0.2-0.1,0.4-0.1,0.4c0,0.1-0.1,0.2-0.1,0.4
		c0,0.1-0.1,0.2-0.1,0.3s-0.1,0.2-0.1,0.3L-215.5,418.4z M-216.9,420h-0.5v-3.8h0.5V420z"/>
	<path class="st0" d="M-256.1,406.7h2.6v1l-0.7,2.3l0,0l-0.4,1.9h-1.5l0.4-2l0.6-2h-2.6v-2.2h1.5V406.7z"/>
	<path class="st0" d="M-251.7,406.1h1.1c-0.1,0.8-0.3,1.5-0.4,2.3h-1.4v-0.1C-252.3,407.5-252,406.8-251.7,406.1z M-249.8,406.1h1.1
		c-0.1,0.8-0.3,1.5-0.4,2.3h-1.3l-0.1-0.1C-250.1,407.3-249.9,406.5-249.8,406.1L-249.8,406.1z"/>
	<path class="st0" d="M-247.2,410.2v-3.5h1.5v2.4l-0.9,1.1H-247.2z"/>
	<path class="st0" d="M-241.7,406.7c0.2,0,0.4-0.1,0.7-0.1c0.2,0,0.4,0,0.6,0.1c0.2,0.1,0.3,0.1,0.5,0.2c0.2,0.1,0.3,0.3,0.4,0.4
		c0.2,0.6,0.3,1.2,0.3,1.8c0,0.7-0.2,1.4-0.6,2c-0.4,0.5-1,0.8-1.7,0.7c-0.3,0-0.6-0.1-0.9-0.1c-0.3-0.1-0.5-0.3-0.7-0.5
		c-0.2-0.2-0.4-0.6-0.4-0.9c-0.1-0.4-0.2-0.7-0.1-1.1v-2.5h1.5v2.5c0,1,0.2,1.5,0.7,1.5c0.2,0,0.4-0.1,0.5-0.4
		c0.1-0.3,0.2-0.7,0.1-1.1c0-0.4,0-0.7-0.1-1.1c-0.1-0.2-0.3-0.3-0.5-0.3h-0.2L-241.7,406.7z"/>
	<path class="st0" d="M-233.5,406.8c0.5-0.1,0.9-0.1,1.4-0.1c0.3,0,0.6,0,1,0.1c0.2,0.1,0.4,0.1,0.6,0.2c0.2,0.1,0.3,0.2,0.4,0.3
		c0.1,0.1,0.2,0.2,0.2,0.4c0.1,0.1,0.1,0.3,0.1,0.4v3.8h-1.5v-3.2c0-0.5-0.3-0.7-0.8-0.7c-0.5,0-0.9,0-1.4,0.1L-233.5,406.8
		L-233.5,406.8z"/>
	<path class="st0" d="M-226.3,411.8h-1.5v-5.2h1.5V411.8z"/>
	<path class="st0" d="M-220.6,406.7v1.1c-0.2,0-0.4,0.2-0.5,0.4c-0.1,0.2-0.1,0.4-0.1,0.6v3.1h-1.5v-3.1c0-0.3,0.1-0.6,0.4-0.8h-2.4
		v-1.2L-220.6,406.7L-220.6,406.7z"/>
	<path class="st0" d="M-218,406.7c0.1,0.2,0.1,0.3,0.1,0.5h0.1l0.2-0.2c0.1-0.1,0.2-0.1,0.3-0.2s0.2-0.1,0.4-0.1
		c0.2-0.1,0.4-0.1,0.6-0.1c0.2,0,0.4,0.1,0.6,0.1c0.2,0.1,0.4,0.2,0.5,0.3c0.1,0.1,0.2,0.3,0.3,0.5c0.2,0.4,0.2,0.9,0.2,1.4v2.9
		h-2.4v-1.2h0.9v-1.7c0-0.2,0-0.4-0.1-0.6c-0.1-0.1-0.1-0.2-0.1-0.3c-0.1-0.2-0.3-0.2-0.5-0.2c-0.1,0-0.2,0-0.3,0.1
		c-0.1,0-0.1,0.1-0.2,0.1c-0.1,0.1-0.2,0.2-0.2,0.3v0.1l-0.1,3.5h-1.5l0.3-3.2v-0.5c0-0.5-0.1-0.9-0.2-1.3L-218,406.7L-218,406.7z"
		/>
</g>
</svg>
