<svg xmlns="http://www.w3.org/2000/svg" xmlns:xlink="http://www.w3.org/1999/xlink" viewBox="0 0 215.64681 238.05189"><defs><style>.abc17d07-06ca-4ff2-93da-d1ce952c306b,.b8555284-19de-457e-8eab-e083ffa91ba4,.e5d5f9d1-fb42-43e4-ae83-28721146de22,.f7e42d25-8026-48a6-91c5-40f61631bd07{fill:none;}.b8555284-19de-457e-8eab-e083ffa91ba4,.f7e42d25-8026-48a6-91c5-40f61631bd07{stroke:#bcbec0;}.abc17d07-06ca-4ff2-93da-d1ce952c306b,.b8555284-19de-457e-8eab-e083ffa91ba4,.f7e42d25-8026-48a6-91c5-40f61631bd07{stroke-miterlimit:10;}.ef4503b5-31e0-42ce-a11c-28ec2791ea4f{clip-path:url(#b60e2253-1bcb-4efe-a9c9-f7c5d8fbefcc);}.aa160d16-9e49-422f-9641-4ed7fda39163{fill:#1a242d;}.a411155b-e1e7-4c0b-991d-e50eb9393182{fill:#566345;}.ac658a06-2668-4682-97b4-6edc094cb9ff{fill:#63774e;}.e1a69dc9-6f7a-4891-ba08-a90f20402c1b{clip-path:url(#fb982b69-64b8-4e9e-aa02-62858d687f41);}.a606459d-cb08-4a00-9235-592351ce2686{fill:#009ac4;}.af15477b-3b21-4200-af54-dbdfc85c40f6{fill:#f1f2f2;}.abc17d07-06ca-4ff2-93da-d1ce952c306b{stroke:#e6e7e8;stroke-width:2.94805px;}.b08cc4dd-b921-43be-9b83-32ac91f590e0{fill:#bcbec0;}.f7e42d25-8026-48a6-91c5-40f61631bd07{stroke-width:1.10552px;}.e5d5f9d1-fb42-43e4-ae83-28721146de22{stroke:#414042;stroke-linejoin:round;stroke-width:4.42208px;}.e96103db-3260-4e05-aa62-1bb50702e1a5{fill:#d1d3d4;}</style><clipPath id="b60e2253-1bcb-4efe-a9c9-f7c5d8fbefcc"><rect class="b8555284-19de-457e-8eab-e083ffa91ba4" x="73.12646" y="-721.29792" width="233.75906" height="493.74709"/></clipPath><clipPath id="fb982b69-64b8-4e9e-aa02-62858d687f41"><rect class="b8555284-19de-457e-8eab-e083ffa91ba4" x="-202.61822" y="-721.29792" width="233.75906" height="493.74709"/></clipPath></defs><g id="a6d8e0fe-78f5-483b-a3a7-50a141f15117" data-name="Layer 1"><g class="ef4503b5-31e0-42ce-a11c-28ec2791ea4f"><path class="aa160d16-9e49-422f-9641-4ed7fda39163" d="M207.6765,16.481c3.02373.04629,5.75307-.075,8.30687,1.83665,3.32957,2.49241,3.87729,6.61589,4.04183,10.4349a8.08946,8.08946,0,0,1-.82016,4.45921,8.95819,8.95819,0,0,1-3.05928,2.82384,36.45631,36.45631,0,0,1-18.64554,5.675c-4.30646.1037-8.81955-.63823-12.24827-3.17026s-5.4309-7.18-3.84872-11.07023c1.72546-4.2425,6.71234-6.13065,11.1744-7.55773,2.25812-.7222,4.57316-1.05722,6.4332-2.60623a6.77709,6.77709,0,0,1,1.30265-.9777c.91154-.44442,2.25927.17607,3.26153.19377C204.941,16.54631,206.30933,16.46008,207.6765,16.481Z"/><path class="a411155b-e1e7-4c0b-991d-e50eb9393182" d="M245.06648-199.38773c-.96176,1.23516-.00443,7.09673-.00612,8.59953-.00675,6.00757-.09086,12.01971-.41283,18.019-.292,5.44171-.07189,11.78562-2.34079,16.81326-2.10333,4.66075-6.32161,4.853-8.90917,8.429-3.12028,4.31221-2.67677,14.99849-3.4284,20.32657A353.43714,353.43714,0,0,0,226.747-84.87305c-.774,34.05585-1.57449,68.14828-2.43614,102.074-4.1791,4.05413-7.54546,2.19327-12.56757,2.2683-1.57677.02355-18.96761.75392-18.69523-1.57786,1.91013-16.35265.2431-32.11459-.19922-48.43388q-.69959-25.81119-.187-51.63514.554-26.99184,2.4589-53.925c1.2482-17.61857,4.31212-35.46956,4.0876-53.10522q-.03742-2.94059-.00081-5.88153a6.44166,6.44166,0,0,1,.95538-4.01373,4.83626,4.83626,0,0,1,3.92449-1.37369c4.42563.02025,8.70892,1.5717,13.08437,2.287C226.37691-196.68487,235.87855-198.53211,245.06648-199.38773Z"/><path class="ac658a06-2668-4682-97b4-6edc094cb9ff" d="M254.10087-209.517c15.63722-13.97016,24.3825,23.80716,24.92053,33.92525.62087,11.676-3.74543,22.32927-4.86207,33.66956-1.45938,14.82123-4.0895,29.808-3.81585,44.72521.35065,19.11451-.08654,38.24754-.81911,57.34591-.39877,10.39578-.89816,20.7871-1.43514,31.17609q-.392,7.58366-.80522,15.16612c-.13974,2.58962.85218,11.731-1.1124,13.48719a3.44206,3.44206,0,0,1-1.87473.6601,101.4917,101.4917,0,0,1-23.14459.49311,5.29818,5.29818,0,0,1-3.3113-1.05723c-1.02846-.97013-1.17475-2.56587-1.2528-4.0056-2.34615-43.27812-4.16009-86.01086-4.87555-129.29488-.10437-6.31583-.45854-12.61691-.66688-18.92808-.15824-4.79382.57193-9.329-3.03256-12.87717-3.99337-3.931-7.86036-7.45871-11.13853-12.22533a72.30625,72.30625,0,0,1-7.87136-14.9714c-1.9548-5.07589-2.41013-10.5691-4.7429-15.44782-1.58388-3.3125-3.82207-6.53161-3.81292-10.25676"/></g><rect class="b8555284-19de-457e-8eab-e083ffa91ba4" x="73.12646" y="-721.29792" width="233.75906" height="493.74709"/><g class="e1a69dc9-6f7a-4891-ba08-a90f20402c1b"><path class="ac658a06-2668-4682-97b4-6edc094cb9ff" d="M-21.64381-209.517c15.63722-13.97016,24.38249,23.80716,24.92053,33.92525.62087,11.676-3.74543,22.32927-4.86207,33.66956-1.45939,14.82123-4.0895,29.808-3.81585,44.72521.35065,19.11451-.08654,38.24754-.81911,57.34591C-6.61908-29.45526-7.11847-19.06394-7.65545-8.675q-.392,7.58366-.80522,15.16612c-.13974,2.58962.85218,11.731-1.1124,13.48719a3.44209,3.44209,0,0,1-1.87473.6601,101.4917,101.4917,0,0,1-23.14459.49311,5.29818,5.29818,0,0,1-3.3113-1.05723c-1.02846-.97013-1.17475-2.56587-1.2528-4.0056-2.34615-43.27812-4.16009-86.01086-4.87555-129.29488-.10437-6.31583-.45854-12.61691-.66688-18.92808-.15824-4.79382.57193-9.329-3.03256-12.87717-3.99337-3.931-7.86036-7.45871-11.13853-12.22533a72.30625,72.30625,0,0,1-7.87136-14.9714c-1.9548-5.07589-2.41013-10.5691-4.7429-15.44782-1.58388-3.3125-3.82207-6.53161-3.81292-10.25676"/></g><rect class="b8555284-19de-457e-8eab-e083ffa91ba4" x="-202.61822" y="-721.29792" width="233.75906" height="493.74709"/><rect class="a606459d-cb08-4a00-9235-592351ce2686" width="215.64681" height="238.05189" rx="9.39742"/><polygon class="af15477b-3b21-4200-af54-dbdfc85c40f6" points="203.792 223.978 47.47 223.978 10.161 186.55 10.161 15.292 203.792 15.292 203.792 223.978"/><path class="abc17d07-06ca-4ff2-93da-d1ce952c306b" d="M144.51723,19.33187V13.21623a2.35216,2.35216,0,0,0-2.35216-2.35217h-69.436a2.35217,2.35217,0,0,0-2.35217,2.35217v6.11564"/><rect class="b08cc4dd-b921-43be-9b83-32ac91f590e0" x="72.44679" y="6.11268" width="70.18871" height="7.52694"/><polyline class="f7e42d25-8026-48a6-91c5-40f61631bd07" points="77.998 27.439 98.038 27.439 99.591 26.718 114.833 26.718 115.821 27.439 142.635 27.439"/><polyline class="e5d5f9d1-fb42-43e4-ae83-28721146de22" points="70.377 17.842 70.377 27.439 80.021 27.439"/><polyline class="e5d5f9d1-fb42-43e4-ae83-28721146de22" points="144.517 17.842 144.517 27.439 134.873 27.439"/><rect class="af15477b-3b21-4200-af54-dbdfc85c40f6" x="72.44679" y="6.45748" width="70.18871" height="2.25846"/><polygon class="e96103db-3260-4e05-aa62-1bb50702e1a5" points="47.47 223.669 28.911 205.11 10.351 186.55 47.47 186.55 47.47 223.669"/></g></svg>