<svg xmlns="http://www.w3.org/2000/svg" xmlns:xlink="http://www.w3.org/1999/xlink" viewBox="0 0 270.6489 238.01573"><defs><style>.a44ab601-8785-434e-8a63-b70209797197,.aaa77bf8-4af7-437b-9125-2170929b1aad{fill:none;}.a44ab601-8785-434e-8a63-b70209797197{stroke:#bcbec0;stroke-miterlimit:10;}.e87c47bd-86b8-40ea-95f8-4a9f9b29f8e6{clip-path:url(#bf185c7b-cf71-4fce-b271-75c7ac876acb);}.b2c03c22-5736-4170-b0bb-238757c2e26b{clip-path:url(#b1bcd0ec-d90e-4921-9045-c02edf6147e6);}.b6bb82fd-80bf-4236-9a42-468536442eba{clip-path:url(#f15ec695-2afc-4a3a-b90e-295d3f5d9b3a);}.e6662663-7d00-4f14-8aef-5814ff055538{fill:#1a242d;}.bb4c302f-832b-454f-ac52-b91666f1ee62{fill:#566345;}.b2a1b67b-9f94-4ded-a1c2-7e4a760c53e3{fill:#63774e;}.a6ec8e3d-8c24-456f-a49a-df52c4fb25a0{fill:#fff;}</style><clipPath id="bf185c7b-cf71-4fce-b271-75c7ac876acb"><rect class="a44ab601-8785-434e-8a63-b70209797197" x="-220.08318" y="-728.85469" width="233.75906" height="493.74709"/></clipPath><clipPath id="b1bcd0ec-d90e-4921-9045-c02edf6147e6"><rect class="aaa77bf8-4af7-437b-9125-2170929b1aad" x="45.092" y="-728.66314" width="233.75906" height="493.74709"/></clipPath><clipPath id="f15ec695-2afc-4a3a-b90e-295d3f5d9b3a"><rect class="aaa77bf8-4af7-437b-9125-2170929b1aad" x="117.46499" y="-438.00991" width="161.38607" height="204.35191"/></clipPath></defs><g id="ac505db6-2c07-4deb-ac7d-9a0316c0a9ca" data-name="Layer 1"><rect class="a44ab601-8785-434e-8a63-b70209797197" x="-220.08318" y="-728.85469" width="233.75906" height="493.74709"/><g class="b2c03c22-5736-4170-b0bb-238757c2e26b"><g class="b6bb82fd-80bf-4236-9a42-468536442eba"><path class="e6662663-7d00-4f14-8aef-5814ff055538" d="M169.95363,9.20772c3.02373.0463,5.75308-.075,8.30688,1.83666,3.32956,2.4924,3.87728,6.61588,4.04183,10.4349a8.08948,8.08948,0,0,1-.82017,4.45921,8.95817,8.95817,0,0,1-3.05928,2.82383,36.4563,36.4563,0,0,1-18.64553,5.67495c-4.30647.1037-8.81956-.63823-12.24828-3.17026s-5.43089-7.18-3.84871-11.07022c1.72546-4.24251,6.71234-6.13066,11.17439-7.55774,2.25813-.7222,4.57316-1.05721,6.4332-2.60622a6.77658,6.77658,0,0,1,1.30265-.9777c.91155-.44443,2.25927.17606,3.26154.19376C167.21817,9.273,168.58647,9.1868,169.95363,9.20772Z"/><path class="e6662663-7d00-4f14-8aef-5814ff055538" d="M215.51381,9.20772c3.41741.0463,6.50209-.075,9.38838,1.83666,3.76306,2.4924,4.38209,6.61588,4.56806,10.4349a7.29267,7.29267,0,0,1-.927,4.45921,9.7627,9.7627,0,0,1-3.45758,2.82383,45.128,45.128,0,0,1-21.07306,5.67495c-4.86714.10371-9.96781-.63823-13.84293-3.17026s-6.138-7.18-4.34979-11.07022c1.95011-4.24251,7.58625-6.13066,12.62923-7.55774,2.55212-.7222,5.16855-1.05721,7.27076-2.60622a7.658,7.658,0,0,1,1.47225-.9777c1.03022-.44443,2.55341.17606,3.68617.19376C212.42222,9.273,213.96865,9.1868,215.51381,9.20772Z"/><path class="bb4c302f-832b-454f-ac52-b91666f1ee62" d="M207.34361-206.661c-.96175,1.23516-.00443,7.09674-.00612,8.59953-.00675,6.00757-.09086,12.01971-.41282,18.019-.292,5.44172-.0719,11.78562-2.3408,16.81326-2.10333,4.66075-6.32161,4.85305-8.90917,8.429-3.12027,4.31221-2.67677,14.9985-3.4284,20.32657a353.43936,353.43936,0,0,0-3.22221,42.32731c-.774,34.05585-1.57448,68.14828-2.43614,102.074-4.17909,4.05412-7.54545,2.19326-12.56757,2.26829-1.57677.02355-18.9676.75392-18.69523-1.57786,1.91013-16.35264.24311-32.11458-.19921-48.43388q-.6996-25.81119-.187-51.63513.55406-26.99185,2.45891-53.925c1.24819-17.61857,4.31211-35.46956,4.0876-53.10521q-.03744-2.94059-.00082-5.88154a6.44176,6.44176,0,0,1,.95538-4.01373,4.83632,4.83632,0,0,1,3.9245-1.37369c4.42563.02025,8.70892,1.5717,13.08437,2.287C188.65405-203.95815,198.15569-205.8054,207.34361-206.661Z"/><path class="b2a1b67b-9f94-4ded-a1c2-7e4a760c53e3" d="M216.378-216.79026c15.63721-13.97016,24.38249,23.80716,24.92052,33.92525.62088,11.676-3.74543,22.32928-4.86206,33.66956-1.45939,14.82123-4.08951,29.808-3.81586,44.72522.35065,19.1145-.08653,38.24753-.81911,57.3459-.39876,10.39578-.89816,20.78711-1.43513,31.17609q-.392,7.58367-.80522,15.16612c-.13975,2.58962.85217,11.731-1.1124,13.4872a3.44219,3.44219,0,0,1-1.87473.66009,101.49115,101.49115,0,0,1-23.14459.49311,5.29822,5.29822,0,0,1-3.3113-1.05722c-1.02847-.97014-1.17475-2.56588-1.2528-4.00561-2.34616-43.27811-4.1601-86.01085-4.87555-129.29488-.10437-6.31583-.45854-12.61691-.66688-18.92808-.15825-4.79382.57192-9.329-3.03256-12.87717-3.99338-3.931-7.86036-7.45871-11.13853-12.22533a72.30578,72.30578,0,0,1-7.87137-14.9714c-1.95479-5.07589-2.41012-10.5691-4.7429-15.44782-1.58388-3.31249-3.82206-6.5316-3.81291-10.25676"/></g></g><rect class="a6ec8e3d-8c24-456f-a49a-df52c4fb25a0" width="248.71331" height="238.01573" rx="17.76387"/><path class="a6ec8e3d-8c24-456f-a49a-df52c4fb25a0" d="M243.33444,125.10244a3.01691,3.01691,0,0,1,4.48713-2.67785l10.19462,5.691,10.19461,5.691a3.01691,3.01691,0,0,1,.07551,5.22489l-10.02588,5.98328-10.02588,5.98328a3.01691,3.01691,0,0,1-4.56265-2.547l-.16873-11.6743Z"/></g></svg>