<svg xmlns="http://www.w3.org/2000/svg" xmlns:xlink="http://www.w3.org/1999/xlink" viewBox="0 0 224 239.81971"><defs><style>.a90f6633-2033-42a5-a5f6-18afc1e13dc7{fill:none;}.ff720a46-c463-427f-8abe-1ce685d61ab7{clip-path:url(#a9df8132-6e60-41c6-ae02-0ee06712f305);}.fece77e5-1be0-4d56-990a-b73e97d026fd{fill:#f6d2ba;}.a41f9e8d-9099-4201-8530-0c44f6299034{fill:#566345;}.f9063bc8-6dc7-4591-897b-5293fe695861{fill:#63774e;}.a2920610-5a6a-4ba0-a196-4f6d9f744716{fill:#fff;}.b74cd033-b501-49c1-a90c-75b3003d72bc{fill:#3c2415;}.fc74d76f-2e41-4c0d-8e0a-ab0762cb34e6{fill:#6f825a;}.aae0763b-5908-4d4c-ad9b-bca969e7caaf{fill:#231f20;}.e733bdfd-8ca1-427d-a3a3-44b558022179{fill:#938c6c;}</style><clipPath id="a9df8132-6e60-41c6-ae02-0ee06712f305"><rect class="a90f6633-2033-42a5-a5f6-18afc1e13dc7" x="-10.05913" y="-26.00978" width="245.95344" height="265.82949"/></clipPath></defs><g id="b64a0d9d-6c2f-4e79-9e24-880035a1f8ae" data-name="Layer 1"><g class="ff720a46-c463-427f-8abe-1ce685d61ab7"><path class="fece77e5-1be0-4d56-990a-b73e97d026fd" d="M38.43,128.75743c-2.91109-2.88533-7.29092-3.70839-11.06986-5.10519.93835-5.03945-4.03088-9.63505-3.54387-14.73794.10325-1.08183.40106-2.33984-.34733-3.12785a2.16833,2.16833,0,0,0-2.66453-.07563c-2.07983,1.32436-2.15867,4.27737-2.00294,6.73813q.16791,2.65325.33581,5.3065c-5.73344-.14507-15.76459-7.023-17.76926,2.06581-.749,3.39583.12148,7.59877.48308,11.03175a8.882,8.882,0,0,0,.77115,3.26357c2.90926,5.4989,11.14272,4.94744,16.42033,5.00362,6.09268.06486,12.26479,1.17361,18.33413.18989,2.47-.40035,5.59656-.68,5.469-3.58881C42.73363,133.16642,40.12321,130.43568,38.43,128.75743Z"/><path class="a41f9e8d-9099-4201-8530-0c44f6299034" d="M93.95767,108.21253q.57441-.72084,1.1593-1.436c3.45029-4.2127,6.80456-8.54923,10.82522-12.24577,1.86944-1.71874,15.46136-11.2627,13.136-3.47186-1.97024,6.60105-5.59772,12.26082-7.15335,18.90943-1.79626,7.67705-4.91726,16.51683-9.856,22.7138a72.118,72.118,0,0,1-8.50406,9.4677c-3.57725,3.14406-8.22877,6.27666-12.83827,7.64564-4.79449,1.42392-9.8937.35016-14.78063.31927-10.366-.06551-21.16076-2.82648-31.03413-5.86187-2.10885-.64833-7.39944-1.04087-7.17368-3.70272.3737-4.40628-.13193-9.358.85533-13.66407,1.12355-4.90048,2.69323-3.09087,7.627-2.00114,9.0229,1.99292,18.10013,3.80707,27.28149,4.90121,3.43389.40922,6.78832,1.74243,9.72761-.46909,3.03576-2.2841,6.4496-4.32924,9.11564-7.02968C86.659,117.91781,90.15508,112.98451,93.95767,108.21253Z"/><path class="a41f9e8d-9099-4201-8530-0c44f6299034" d="M146.20086,213.78368c-.96175,1.23516-.00443,7.09674-.00612,8.59953-.00675,6.00757-.09086,12.01971-.41283,18.019-.292,5.44172-.07189,11.78562-2.34079,16.81326-2.10333,4.66075-6.32161,4.853-8.90917,8.429-3.12028,4.31221-2.67677,14.9985-3.4284,20.32657a353.43936,353.43936,0,0,0-3.22221,42.32731c-.774,34.05585-1.57448,68.14828-2.43614,102.074-4.17909,4.05412-7.54545,2.19326-12.56757,2.26829-1.57677.02355-18.9676.75392-18.69523-1.57786,1.91013-16.35264.2431-32.11458-.19922-48.43388q-.69959-25.81119-.187-51.63513.554-26.99186,2.45891-53.925c1.24819-17.61857,4.31211-35.46956,4.0876-53.10521q-.03744-2.94058-.00082-5.88154a6.44169,6.44169,0,0,1,.95538-4.01373,4.8363,4.8363,0,0,1,3.92449-1.37369c4.42564.02025,8.70893,1.5717,13.08438,2.287C127.5113,216.48655,137.01294,214.6393,146.20086,213.78368Z"/><path class="f9063bc8-6dc7-4591-897b-5293fe695861" d="M155.23526,203.65444c15.63721-13.97016,24.38249,23.80716,24.92052,33.92525.62088,11.676-3.74543,22.32928-4.86206,33.66956-1.45939,14.82123-4.08951,29.808-3.81586,44.72522.35065,19.1145-.08653,38.24753-.81911,57.3459-.39876,10.39578-.89816,20.78711-1.43513,31.17609q-.392,7.58367-.80522,15.16612c-.13975,2.58962.85217,11.731-1.1124,13.4872a3.44219,3.44219,0,0,1-1.87474.66009,101.49105,101.49105,0,0,1-23.14458.49311,5.29826,5.29826,0,0,1-3.31131-1.05722c-1.02846-.97014-1.17474-2.56588-1.2528-4.00561-2.34615-43.27811-4.16009-86.01085-4.87554-129.29488-.10438-6.31583-.45855-12.61691-.66688-18.92808-.15825-4.79382.57192-9.329-3.03257-12.87717-3.99337-3.931-7.86035-7.45871-11.13852-12.22533a72.30578,72.30578,0,0,1-7.87137-14.9714c-1.9548-5.07589-2.41013-10.5691-4.7429-15.44782-1.58388-3.31249-3.82206-6.5316-3.81291-10.25676"/><path class="fece77e5-1be0-4d56-990a-b73e97d026fd" d="M97.2015,41.60517C98.867,30.16174,102.74629,20.18686,115.74492,16.031c6.67812-2.13509,14.02889-1.4031,20.64889.906a25.92359,25.92359,0,0,1,9.9776,5.82824c3.546,3.55889,5.4548,8.45907,6.44265,13.38495,1.87831,9.36614,2.05469,22.91327-3.67857,31.08365-2.03229,2.89619-10.17308,3.7944-9.52883,7.27334.86379,4.66444.88781,12.38559.51827,18.31224-.0666,1.06814-1.09373,2.42879-.55992,3.35637a9.21414,9.21414,0,0,0,1.85094,1.874,8.7245,8.7245,0,0,1,2.27422,7.54935c-.78953,5.41361-5.46935,10.84993-9.12781,14.67423a17.90582,17.90582,0,0,1-7.051,4.92979,2.24735,2.24735,0,0,1-1.457.10926,2.43838,2.43838,0,0,1-1.108-1.12189,54.54967,54.54967,0,0,1-6.41374-15.12057c-.83324-3.26651-1.37619-6.75763-.42942-10.06237.7088-2.47409,2.31242-4.46275,2.64017-7.06348.48954-3.88457-.42943-11.09654-5.26788-11.74508l-9.56579-1.28217c-12.569-1.68472-10.34-20.46314-9.58107-29.34077C96.55934,46.8773,96.82335,44.20338,97.2015,41.60517Z"/><path class="a2920610-5a6a-4ba0-a196-4f6d9f744716" d="M118.71579,92.20711c1.34725.1025,1.545,1.9726,1.86363,2.92555.55891,1.67164,1.47707,3.29966,2.1978,4.90951.72821,1.62657,1.69392,3.45332,3.43851,3.81719a5.40163,5.40163,0,0,0,3.84227-1.17529,68.87539,68.87539,0,0,0,8.31723-6.85172c.40778-.36016,5.69873-5.41325,5.98137-4.83375,1.90316,3.902.63439,9.0592.74747,13.25194q.18714,6.93779.26308,13.878c.10389,9.15873.07486,18.31855-.03735,27.477-.11227,9.16322-.30852,18.32517-.53343,27.48624-.05967,2.43059.1397,27.1493-.70687,27.30884a108.579,108.579,0,0,1-37.02254.53735q-.26-12.09037-.05984-24.18481.52632-31.81977,4.22712-63.48122a75.598,75.598,0,0,1,2.77215-14.50832c.55369-1.71534,1.73877-4.96206,3.24249-6.01892A2.33174,2.33174,0,0,1,118.71579,92.20711Z"/><path class="f9063bc8-6dc7-4591-897b-5293fe695861" d="M172.57228,94.78265a100.51824,100.51824,0,0,0-22.841-8.75837c-2.63949-.65719-5.75144-1.10344-7.80493.68037a8.9547,8.9547,0,0,0-2.24655,4.144c-.00009,6.80066-4.252,12.00854-8.06006,17.07475-3.33859,4.44162-5.2201,9.09875-7.41146,14.08477-1.41133-6.03818-1.92978-12.36178-2.63461-18.51909-.55678-4.86391-1.58282-10.61086-.66135-15.46727.1037-.54653-5.06153,1.56372-5.55958,2.02264a18.72019,18.72019,0,0,0-3.68481,5.86132,35.92837,35.92837,0,0,0-2.25684,8.57275c-1.80756,11.46353-12.62379,18.91205-11.00991,31.36016.65846,5.07881,3.1538,9.502,3.76373,14.54237.72933,6.02707,2.91223,11.73514,3.27387,17.86358.41244,6.98945-1.9674,12.99067-2.612,19.77716q-1.19685,12.601-1.59248,25.26129c-.06933,2.2124.03137,4.76755,1.77171,6.13531,1.64846,1.29555,4.00358.91824,6.06525.53694,11.19943-2.0713,21.88445-.31884,32.99354-1.177a184.05755,184.05755,0,0,0,26.63733-4.20172c-5.16135-24.36193.47871-48.09823,1.391-72.38178l1.75624-46.75109"/><path class="b74cd033-b501-49c1-a90c-75b3003d72bc" d="M133.16632,75.79616a16.44785,16.44785,0,0,1-8.17241-7.80215c-1.569-3.25209-1.98091-9.19269.94193-11.83317,2.08065-1.87965,3.91751-4.49884,4.09507-7.43718.12007-1.98714-1.07037-4.20612-3.037-4.51592-3.00429-.47319-4.38446,2.55329-6.24513,4.17852-4.29491,3.75144-7.01395-1.56609-9.97035-3.70462a13.32141,13.32141,0,0,0-3.44265-1.59988L98.99313,40.135a1.013,1.013,0,0,0-1.59861.98825l-.48756,3.6086C91.773,34.3821,93.5,19.85111,104.63317,14.2687c3.77379-1.89226,7.79887-2.45775,11.55251-4.52118,7.50145-4.12364,20.64108-1.73623,27.68851,2.65764,11.02264,6.87228,15.617,19.80643,16.28048,32.23449a55.38261,55.38261,0,0,1-.78482,11.34466c-1.00937,6.5148-2.63791,14.28531-7.21927,19.32256a8.91006,8.91006,0,0,1-8.1969,2.79119c-3.10954-.61864-6.42022-.79832-9.48531-1.80626Q133.80843,76.07478,133.16632,75.79616Z"/><path class="fc74d76f-2e41-4c0d-8e0a-ab0762cb34e6" d="M123.93493,130.27483q.0589-.49848.12026-.99288c.71581-5.76713.0765-10.02055-1.15128-15.82715a4.16408,4.16408,0,0,0-1.17709-2.51637c.175,9.2845-2.144,18.087-2.70461,27.23444-1.621,26.44992,1.23717,52.80563-1.65318,79.18316a1.01305,1.01305,0,0,0,.08862.6823.97377.97377,0,0,0,.68.32912,7.82291,7.82291,0,0,0,3.42745-.19616,1.32057,1.32057,0,0,0,.75156-.43389,1.39969,1.39969,0,0,0,.18731-.72749c.35046-5.38578-.40551-11.06061-.452-16.48616-.0727-8.48925-.1454-16.97921-.04419-25.46868.10217-8.56923.382-17.13536.75052-25.69707a105.16137,105.16137,0,0,1,4.08448-29.42822,18.23452,18.23452,0,0,0,.91728-5.02357,13.70842,13.70842,0,0,0-4.44262,7.02641,33.98056,33.98056,0,0,0-1.34566-9.838"/><path class="aae0763b-5908-4d4c-ad9b-bca969e7caaf" d="M158.69832,17.67012l.52435-.72761a12.29748,12.29748,0,0,0-4.97949-.61368,12.01006,12.01006,0,0,0-3.15875.32784c-3.22594.93-5.14917,4.62036-4.72467,7.95072a11.50094,11.50094,0,0,0,5.62873,7.95054,6.16167,6.16167,0,0,0,1.82684.82578c2.37659.54863,4.76026-1.37222,5.60309-3.66106s.54084-4.81964.22757-7.23853l-.67443-5.20766.00636.13306"/><path class="b74cd033-b501-49c1-a90c-75b3003d72bc" d="M156.73121,38.05239a33.078,33.078,0,0,0-.647-7.95672c-1.72731-8.39317-5.97844-18.153.60236-25.57981,5.7132-6.44766,18.96039-4.72283,24.78126.50123a26.93394,26.93394,0,0,1,8.74626,21.50917,29.28006,29.28006,0,0,1-3.03351,11.31136c-1.93693,3.79862-4.65909,7.67331-2.95045,12.18722,1.3884,3.66788,5.4185,5.77667,6.9849,9.37213,2.15176,4.93907-.98009,11.03347,1.2823,15.92285,1.4493,3.13216,4.89448,5.17515,5.737,8.52186.93512,3.71446-.44911,8.61336-1.02555,12.30528.22344-1.43108-5.9791-5.94811-7.30965-6.4571-2.30569-.882-5.28941-.52833-7.73168-.92395-5.98495-.9695-13.256-2.55937-16.449-8.3309-2.45332-4.4345-1.628-10.15412-4.19262-14.52522-1.912-3.25885-5.51444-5.39731-6.91968-8.90461-1.84949-4.61608.97523-9.30074,1.63928-13.83943A46.70759,46.70759,0,0,0,156.73121,38.05239Z"/><path class="fc74d76f-2e41-4c0d-8e0a-ab0762cb34e6" d="M123.74433,219.79808a258.17774,258.17774,0,0,0,2.56939,32.26362c-5.0422-10.1367-6.33953-21.66371-7.55986-32.91926a4.8197,4.8197,0,0,1,.0827-2.10189c.55742-1.60267,2.8257-2.126,4.25763-1.21558a4.5017,4.5017,0,0,1,1.73971,4.48334"/><path class="e733bdfd-8ca1-427d-a3a3-44b558022179" d="M169.23021,201.00594a36.92517,36.92517,0,0,0,1.20816,4.91274c.269.63111,1.76237,2.53833.91892,3.09582a33.17354,33.17354,0,0,1-3.04828,1.88393c-3.31848,1.71965-7.11817,2.53643-10.65178,3.41021q-6.50813,1.6093-13.19372,2.60252a143.8454,143.8454,0,0,1-26.33817,1.46657,66.543,66.543,0,0,1-9.09118-.61727c-2.31671-.407-6.52745-1.80555-7.816-3.62335a4.85036,4.85036,0,0,1-.46931-3.45911c.295-2.56574.49147-5.19335.70949-7.71421.58072.03911,7.22844.76094,7.22844.88554,2.25608.42387,4.31776,1.47591,6.60083,1.80726a67.62331,67.62331,0,0,0,10.15288.61129c14.13864-.09883,26.42-3.481,39.02349-8.40937.94429-.36964,2.05842-1.57928,3.13476-1.18073C168.68068,197.07841,169.01634,200.15694,169.23021,201.00594Z"/><path class="a41f9e8d-9099-4201-8530-0c44f6299034" d="M121.8889,151.6293a79.95333,79.95333,0,0,0,13.06654.0925c3.18421-.14157,6.45343.2643,9.56817-.60251-2.62766.73128-4.95409,2.40467-7.43321,3.42539a82.67285,82.67285,0,0,1-9.25272,3.49016c-6.00739,1.667-12.315,1.87737-18.51153,1.96939a7.29247,7.29247,0,0,1-2.63175-.28466c-2.26173-.83-3.107-3.53474-3.59458-5.89408-.41272-1.99694-.57062-4.09021-1.0976-6.05457-.52644-1.96235-1.269-3.90535-1.88564-5.84548a4.146,4.146,0,0,1-.24616-1.132c3.28069,3.18743,6.38459,6.96854,10.98035,8.20129a93.96255,93.96255,0,0,0,10.7937,2.60207Q121.76747,151.6146,121.8889,151.6293Z"/><path class="fece77e5-1be0-4d56-990a-b73e97d026fd" d="M154.74962,207.69549a2.62322,2.62322,0,0,0,.73432,2.48246,1.86468,1.86468,0,0,0,2.15326-.27135,5.46032,5.46032,0,0,0,1.28485-1.91917c-1.98068,3.35534-.21887,7.66372,2.01924,10.85311,1.67288,2.38392,3.89222,4.7378,6.78546,5.07061,2.84476.32724,5.6164-1.49308,7.13555-3.92041a17.508,17.508,0,0,0,2.18172-8.2166,22.89409,22.89409,0,0,0-.21049-5.68494c-.81123-4.36483-6.66309-16.99773-12.29474-14.91906C158.95033,193.23286,155.20587,202.35305,154.74962,207.69549Z"/><path class="fc74d76f-2e41-4c0d-8e0a-ab0762cb34e6" d="M171.07,92.83961c14.78953,5.20878,25.447,18.01964,34.54747,30.78847,5.59369,7.84849,10.92951,15.89579,15.9096,24.14831,9.30119,15.413-13.383,31.91376-22.93982,40.06362-6.9159,5.89773-15.38118,9.8253-21.75818,16.33387-4.84477-4.29535-6.67416-5.86649-10.52436-11.072-.75937-1.0267-1.53659-2.24444-1.251-3.48909a4.56565,4.56565,0,0,1,1.27591-1.96983c2.94494-3.16168,35.03667-32.80315,32.66828-35.94144-9.06325-12.00948-20.26491-22.20033-31.06815-32.59231-5.76307-5.54368-18.02758-15.22852-12.127-23.99318,7.42536-11.02961,23.03922-.97365,28.47,6.69256"/></g></g></svg>