<svg xmlns="http://www.w3.org/2000/svg" xmlns:xlink="http://www.w3.org/1999/xlink" viewBox="0 0 224 239.81971"><defs><style>.a66209d5-0d79-4738-a9ed-78a649b201fb{fill:none;}.fd9d1f42-8066-46ed-bd74-7c4293404430{clip-path:url(#a2752a45-d71c-48c4-9585-d37c29f3756b);}.b7e27bc5-259d-49e2-814c-a1b273d276aa{fill:#f6d2ba;}.a79a40e5-2d18-4ad2-aa72-02d8d967ad4e{fill:#566345;}.a0214b10-9c3c-48b3-9fd9-047dbecd2613{fill:#63774e;}.e6009052-8f71-46e5-acac-8c9f0956a37a{fill:#fff;}.eced1491-42da-4a29-a598-54e237c11b83{fill:#3c2415;}.eb86eb4e-d334-4a8c-943c-861e68ca8f33{fill:#6f825a;}.bcbe07de-de6c-4094-b111-73d73369c0fd{fill:#231f20;}.e44e29e8-1281-4fc8-adbf-c859439549e7{fill:#938c6c;}</style><clipPath id="a2752a45-d71c-48c4-9585-d37c29f3756b"><rect class="a66209d5-0d79-4738-a9ed-78a649b201fb" x="33.08923" y="-17.60775" width="207.60749" height="257.42746"/></clipPath></defs><g id="a137ef42-a963-4968-a6ec-78401664888d" data-name="Layer 1"><g class="fd9d1f42-8066-46ed-bd74-7c4293404430"><path class="b7e27bc5-259d-49e2-814c-a1b273d276aa" d="M88.22692,227.46409c-1.39837,1.76235-1.67434,4.17376-2.48427,7.08592-1.33014,4.78261-2.93769,8.92966,2.397,10.96627,3.64577,1.39183,9.31314,2.12026,12.10216-1.37039,2.52182-3.15622,5.38222-15.48389,2.006-18.53633-2.7435-2.47937-7.50916-1.43391-10.63153-.36957A6.9803,6.9803,0,0,0,88.22692,227.46409Z"/><path class="a79a40e5-2d18-4ad2-aa72-02d8d967ad4e" d="M111.19843,193.487c.46151-14.38822-1.42245-27.94912-2.836-42.19676-.39913-4.02307-.721-8.11517.05241-12.08331q.04631-.23753.09974-.47138c1.19571-5.23979,4.98031-9.14558,6.36686-14.15984,1.14565-4.14308,1.4645-9.16125,1.99872-13.44275.76523-6.13292,4.243-11.87291,4.77592-17.95444.47036-5.37715-4.4531-3.13987-7.14843-1.30218-4.81911,3.28569-7.25717,9.003-9.42832,14.22561-6.53217,15.71289-7.27761,34.04049-7.51747,50.86831-.33924,23.80034-5.57974,48.92218-10.58257,72.18558-.2807.21674-.54241-.4227-.23911-.60647s.68813-.00132.99561.17536a38.52186,38.52186,0,0,0,15.50426,4.93178C105.61979,220.32714,110.76214,207.07606,111.19843,193.487Z"/><path class="a79a40e5-2d18-4ad2-aa72-02d8d967ad4e" d="M150.92278,213.74115c-.96176,1.23516-.00443,7.09673-.00612,8.59953-.00676,6.00757-.09087,12.01971-.41283,18.019-.292,5.44171-.07189,11.78562-2.34079,16.81326-2.10333,4.66075-6.32161,4.853-8.90918,8.429-3.12027,4.31221-2.67676,14.99849-3.42839,20.32657a353.43714,353.43714,0,0,0-3.22221,42.32731c-.774,34.05585-1.57449,68.14828-2.43614,102.074-4.1791,4.05413-7.54546,2.19327-12.56757,2.2683-1.57678.02355-18.96761.75392-18.69523-1.57787,1.91013-16.35264.2431-32.11458-.19922-48.43387q-.69958-25.81119-.187-51.63514.554-26.99185,2.4589-53.925c1.24819-17.61857,4.31212-35.46956,4.0876-53.10522q-.03742-2.94058-.00081-5.88153a6.44159,6.44159,0,0,1,.95538-4.01373,4.83626,4.83626,0,0,1,3.92449-1.37369c4.42563.02025,8.70892,1.5717,13.08437,2.287C132.23321,216.444,141.73485,214.59677,150.92278,213.74115Z"/><path class="a0214b10-9c3c-48b3-9fd9-047dbecd2613" d="M159.95717,203.61191c15.63722-13.97016,24.38249,23.80716,24.92053,33.92525.62087,11.676-3.74543,22.32927-4.86207,33.66956-1.45939,14.82123-4.0895,29.808-3.81585,44.72521.35064,19.11451-.08654,38.24754-.81911,57.34591-.39877,10.39578-.89816,20.7871-1.43514,31.17609q-.392,7.58366-.80522,15.16612c-.13974,2.58962.85218,11.731-1.1124,13.48719a3.44209,3.44209,0,0,1-1.87473.6601,101.4917,101.4917,0,0,1-23.14459.49311,5.29818,5.29818,0,0,1-3.3113-1.05723c-1.02846-.97013-1.17475-2.56587-1.2528-4.0056-2.34615-43.27812-4.16009-86.01086-4.87555-129.29488-.10437-6.31583-.45854-12.61691-.66688-18.92808-.15824-4.79382.57193-9.329-3.03256-12.87717-3.99337-3.931-7.86036-7.45871-11.13853-12.22533a72.30625,72.30625,0,0,1-7.87136-14.9714c-1.9548-5.07589-2.41013-10.5691-4.7429-15.44782-1.58388-3.3125-3.82207-6.53161-3.81292-10.25676"/><path class="b7e27bc5-259d-49e2-814c-a1b273d276aa" d="M101.92341,41.56263c1.66548-11.44342,5.5448-21.4183,18.54342-25.57415,6.67812-2.13509,14.0289-1.4031,20.6489.906a25.92359,25.92359,0,0,1,9.97759,5.82823c3.546,3.5589,5.4548,8.45908,6.44265,13.385,1.87832,9.36614,2.05469,22.91326-3.67856,31.08365-2.03229,2.89619-10.17308,3.79439-9.52883,7.27333.86378,4.66444.8878,12.3856.51827,18.31225-.0666,1.06814-1.09373,2.42878-.55993,3.35636a9.214,9.214,0,0,0,1.85095,1.874,8.72449,8.72449,0,0,1,2.27422,7.54935c-.78953,5.41361-5.46936,10.84993-9.12782,14.67422a17.90567,17.90567,0,0,1-7.051,4.9298,2.24735,2.24735,0,0,1-1.457.10925,2.43833,2.43833,0,0,1-1.108-1.12188,54.54926,54.54926,0,0,1-6.41374-15.12058c-.83324-3.2665-1.3762-6.75763-.42942-10.06237.7088-2.47408,2.31241-4.46275,2.64016-7.06347.48955-3.88458-.42942-11.09654-5.26788-11.74508l-9.56578-1.28217c-12.569-1.68472-10.34-20.46315-9.58108-29.34078C101.28125,46.83476,101.54527,44.16085,101.92341,41.56263Z"/><path class="e6009052-8f71-46e5-acac-8c9f0956a37a" d="M123.43771,92.16457c1.34725.10251,1.545,1.97261,1.86363,2.92556.5589,1.67164,1.47707,3.29966,2.1978,4.90951.72821,1.62656,1.69392,3.45332,3.43851,3.81719a5.40173,5.40173,0,0,0,3.84227-1.17529,68.87624,68.87624,0,0,0,8.31723-6.85173c.40778-.36015,5.69873-5.41324,5.98137-4.83374,1.90315,3.902.63438,9.0592.74747,13.25194q.18714,6.93779.26308,13.878c.10389,9.15873.07485,18.31854-.03736,27.477-.11227,9.16321-.30852,18.32517-.53342,27.48623-.05967,2.4306.1397,27.14931-.70687,27.30885a108.57929,108.57929,0,0,1-37.02254.53735q-.26-12.09038-.05984-24.18481.52631-31.81979,4.22711-63.48122a75.59875,75.59875,0,0,1,2.77216-14.50832c.55369-1.71535,1.73877-4.96207,3.24249-6.01892A2.3318,2.3318,0,0,1,123.43771,92.16457Z"/><path class="a0214b10-9c3c-48b3-9fd9-047dbecd2613" d="M177.2942,94.74012a100.51842,100.51842,0,0,0-22.841-8.75837c-2.63949-.65719-5.75145-1.10344-7.80494.68037a8.95465,8.95465,0,0,0-2.24655,4.144c-.00009,6.80066-4.252,12.00853-8.06006,17.07475-3.33858,4.44162-5.22009,9.09875-7.41145,14.08477-1.41133-6.03818-1.92978-12.36179-2.63462-18.5191-.55677-4.8639-1.58281-10.61085-.66134-15.46726.1037-.54653-5.06153,1.56372-5.55958,2.02264a18.72,18.72,0,0,0-3.68481,5.86132A35.92824,35.92824,0,0,0,114.133,104.436c-1.80757,11.46352-12.6238,18.91205-11.00991,31.36016.65846,5.0788,3.1538,9.502,3.76372,14.54237.72933,6.02706,2.91224,11.73514,3.27388,17.86358.41244,6.98945-1.9674,12.99067-2.612,19.77715q-1.19685,12.601-1.59248,25.2613c-.06934,2.2124.03137,4.76755,1.7717,6.1353,1.64846,1.29556,4.00359.91825,6.06526.537,11.19943-2.0713,21.88444-.31885,32.99354-1.177a184.05912,184.05912,0,0,0,26.63733-4.20171c-5.16135-24.36193.47871-48.09823,1.391-72.38178l1.75624-46.75109"/><path class="eced1491-42da-4a29-a598-54e237c11b83" d="M137.88824,75.75362a16.44773,16.44773,0,0,1-8.17241-7.80215c-1.569-3.25208-1.98091-9.19268.94193-11.83316,2.08065-1.87965,3.9175-4.49885,4.09507-7.43719.12007-1.98713-1.07037-4.20611-3.037-4.51591-3.0043-.4732-4.38446,2.55328-6.24514,4.17852-4.2949,3.75144-7.01394-1.56609-9.97034-3.70462a13.32143,13.32143,0,0,0-3.44265-1.59989l-8.34269-2.94672a1.013,1.013,0,0,0-1.59862.98825l-.48755,3.6086c-5.134-10.34978-3.407-24.88078,7.7262-30.46318,3.7738-1.89226,7.79888-2.45775,11.55251-4.52118,7.50146-4.12365,20.64109-1.73623,27.68852,2.65763,11.02263,6.87229,15.617,19.80643,16.28048,32.23449a55.38272,55.38272,0,0,1-.78483,11.34467c-1.00936,6.51479-2.6379,14.28531-7.21927,19.32256a8.91,8.91,0,0,1-8.19689,2.79118c-3.10955-.61864-6.42023-.79831-9.48531-1.80625Q138.53035,76.03225,137.88824,75.75362Z"/><path class="eb86eb4e-d334-4a8c-943c-861e68ca8f33" d="M128.65685,130.2323q.05889-.49848.12026-.99289c.71581-5.76713.0765-10.02055-1.15128-15.82714a4.16424,4.16424,0,0,0-1.17709-2.51638c.175,9.28451-2.144,18.087-2.70461,27.23445-1.621,26.44992,1.23716,52.80563-1.65319,79.18316a1.013,1.013,0,0,0,.08863.68229.97376.97376,0,0,0,.68.32913,7.823,7.823,0,0,0,3.42744-.19616,1.32059,1.32059,0,0,0,.75157-.43389,1.39971,1.39971,0,0,0,.1873-.72749c.35046-5.38579-.4055-11.06061-.452-16.48617-.0727-8.48925-.1454-16.97921-.04419-25.46867.10216-8.56923.382-17.13536.75051-25.69707a105.16186,105.16186,0,0,1,4.08449-29.42823,18.234,18.234,0,0,0,.91727-5.02356,13.70848,13.70848,0,0,0-4.44261,7.0264,33.98016,33.98016,0,0,0-1.34567-9.838"/><path class="bcbe07de-de6c-4094-b111-73d73369c0fd" d="M163.42024,17.62759l.52435-.72761a12.29736,12.29736,0,0,0-4.9795-.61368,12.01,12.01,0,0,0-3.15874.32783c-3.226.93-5.14917,4.62036-4.72467,7.95073a11.50091,11.50091,0,0,0,5.62873,7.95054,6.16193,6.16193,0,0,0,1.82684.82578c2.37658.54863,4.76026-1.37223,5.60308-3.66107s.54085-4.81964.22758-7.23852l-.67444-5.20766.00637.13306"/><path class="eced1491-42da-4a29-a598-54e237c11b83" d="M161.45313,38.00986a33.07843,33.07843,0,0,0-.647-7.95672c-1.72732-8.39318-5.97845-18.153.60236-25.57981,5.7132-6.44766,18.96038-4.72283,24.78125.50123A26.934,26.934,0,0,1,194.936,26.48373a29.28024,29.28024,0,0,1-3.03351,11.31136c-1.93694,3.79861-4.6591,7.6733-2.95045,12.18722,1.38839,3.66787,5.4185,5.77667,6.9849,9.37213,2.15176,4.93907-.98009,11.03347,1.2823,15.92285,1.44929,3.13216,4.89448,5.17515,5.737,8.52186.93512,3.71446-.44912,8.61336-1.02555,12.30527.22344-1.43108-5.97911-5.9481-7.30965-6.45709-2.30569-.882-5.28941-.52833-7.73168-.92395-5.98495-.9695-13.256-2.55937-16.449-8.3309-2.45333-4.43451-1.628-10.15413-4.19262-14.52523-1.912-3.25884-5.51444-5.39731-6.91969-8.9046-1.84949-4.61608.97524-9.30074,1.63928-13.83943A46.71011,46.71011,0,0,0,161.45313,38.00986Z"/><path class="eb86eb4e-d334-4a8c-943c-861e68ca8f33" d="M128.46625,219.75555a258.17614,258.17614,0,0,0,2.56939,32.26362c-5.0422-10.1367-6.33953-21.66372-7.55987-32.91926a4.81955,4.81955,0,0,1,.08271-2.10189c.55741-1.60267,2.8257-2.126,4.25763-1.21558a4.5017,4.5017,0,0,1,1.73971,4.48334"/><path class="e44e29e8-1281-4fc8-adbf-c859439549e7" d="M173.95213,200.96341a36.92307,36.92307,0,0,0,1.20815,4.91273c.269.63112,1.76237,2.53833.91892,3.09583a33.17556,33.17556,0,0,1-3.04827,1.88393c-3.31849,1.71965-7.11817,2.53642-10.65178,3.4102q-6.50813,1.60932-13.19372,2.60252a143.84452,143.84452,0,0,1-26.33817,1.46658,66.543,66.543,0,0,1-9.09119-.61728c-2.3167-.407-6.52744-1.80554-7.816-3.62335a4.85028,4.85028,0,0,1-.46932-3.4591c.295-2.56574.49147-5.19336.70949-7.71422.58072.03912,7.22845.761,7.22845.88554,2.25608.42388,4.31775,1.47592,6.60082,1.80727a67.62347,67.62347,0,0,0,10.15288.61129c14.13864-.09883,26.42-3.481,39.02349-8.40938.9443-.36963,2.05843-1.57927,3.13476-1.18072C173.4026,197.03588,173.73825,200.11441,173.95213,200.96341Z"/><path class="a79a40e5-2d18-4ad2-aa72-02d8d967ad4e" d="M126.61081,151.58676a79.95121,79.95121,0,0,0,13.06655.0925c3.1842-.14157,6.45343.26431,9.56817-.6025-2.62767.73128-4.95409,2.40466-7.43322,3.42539a82.67465,82.67465,0,0,1-9.25271,3.49016c-6.0074,1.667-12.315,1.87736-18.51153,1.96938a7.29274,7.29274,0,0,1-2.63176-.28465c-2.26172-.83-3.107-3.53475-3.59458-5.89408-.41272-1.99695-.57061-4.09022-1.09759-6.05458-.52645-1.96234-1.269-3.90534-1.88564-5.84547a4.146,4.146,0,0,1-.24616-1.132c3.28068,3.18743,6.38459,6.96855,10.98034,8.20129a93.96309,93.96309,0,0,0,10.7937,2.60208Q126.4894,151.57207,126.61081,151.58676Z"/><path class="b7e27bc5-259d-49e2-814c-a1b273d276aa" d="M154.63533,207.086a2.62323,2.62323,0,0,0,.73433,2.48245,1.86468,1.86468,0,0,0,2.15326-.27135,5.46051,5.46051,0,0,0,1.28485-1.91916c-1.98068,3.35534-.21888,7.66371,2.01924,10.85311,1.67288,2.38392,3.89222,4.73779,6.78546,5.07061,2.84476.32724,5.6164-1.49309,7.13555-3.92042a17.508,17.508,0,0,0,2.18172-8.21659,22.89407,22.89407,0,0,0-.21049-5.68494c-.81123-4.36484-6.66309-16.99774-12.29475-14.91907C158.83605,192.62338,155.09159,201.74357,154.63533,207.086Z"/><path class="eb86eb4e-d334-4a8c-943c-861e68ca8f33" d="M170.95573,92.23012c14.78953,5.20879,25.447,18.01964,34.54747,30.78848,5.59369,7.84849,10.92951,15.89579,15.9096,24.14831,9.30119,15.413-13.383,31.91376-22.93982,40.06362-6.91591,5.89773-15.38118,9.8253-21.75818,16.33387-4.84477-4.29536-6.67416-5.8665-10.52436-11.07206-.75937-1.02669-1.53659-2.24443-1.251-3.48909a4.56556,4.56556,0,0,1,1.27591-1.96982c2.94494-3.16168,35.03667-32.80316,32.66828-35.94145-9.06325-12.00948-20.26491-22.20032-31.06815-32.5923-5.76307-5.54368-18.02758-15.22852-12.127-23.99319,7.42537-11.02961,23.03923-.97365,28.47,6.69257"/></g></g></svg>