<svg xmlns="http://www.w3.org/2000/svg" xmlns:xlink="http://www.w3.org/1999/xlink" viewBox="0 0 224 239.81971"><defs><style>.b90eb0a5-09ff-444b-b1e6-932bff50d5ba{fill:none;}.fe4268fa-d0a5-49d7-b4d7-d14f8c0dfd40{clip-path:url(#ae4d84d4-7ecf-4115-8296-09626fa97f47);}.a81c58f1-6a68-45c3-ab02-0fb1555b6bd0{fill:#f6d2ba;}.aad5f19c-e954-4450-8ea2-d0d196a3fadc{fill:#566345;}.e3cd128a-1379-4169-a70f-4d0ef57a8d0f{fill:#63774e;}.e449dd98-3b2c-429e-83fb-2e22662c1c81{fill:#fff;}.ae580143-fb9e-484c-9fa7-2668f85a2c95{fill:#3c2415;}.f02396d7-1b54-4b42-b20b-33f38540a12a{fill:#6f825a;}.ee558885-b62c-4476-bc64-dfffcefe0ff0{fill:#231f20;}.a76f05be-2fec-4009-a7e8-3fc307aa181e{fill:#938c6c;}</style><clipPath id="ae4d84d4-7ecf-4115-8296-09626fa97f47"><rect class="b90eb0a5-09ff-444b-b1e6-932bff50d5ba" x="25.36583" width="198.63417" height="239.81971"/></clipPath></defs><g id="ad440c25-cb3c-454e-9e92-14c4efe80c04" data-name="Layer 1"><g class="fe4268fa-d0a5-49d7-b4d7-d14f8c0dfd40"><rect class="b90eb0a5-09ff-444b-b1e6-932bff50d5ba" x="11.30176" y="0.30774" width="215.48936" height="185.27031"/><path class="a81c58f1-6a68-45c3-ab02-0fb1555b6bd0" d="M62.63883,128.37634c-2.61119-5.8139-8.35284-9.01881-11.35013-14.54723-2.279-4.20449-5.73827-7.87891-6.414-.50509.00779-.0844-4.04567-2.83569-4.52268-3.34249-1.47-1.56179-2.38323-3.62564-4.57715-4.37465a6.86474,6.86474,0,0,0-6.85521,1.85446c-2.64627,2.65132-3.74327,6.80627-2.02316,10.11765,6.60976,12.7244,21.02873,18.95882,34.69248,24.53447A14.15843,14.15843,0,0,0,62.63883,128.37634Z"/><path class="aad5f19c-e954-4450-8ea2-d0d196a3fadc" d="M92.07519,146.03074c-1.6553.50168-3.53762-.56025-7.07238-3.31028A269.13957,269.13957,0,0,1,57.72,118.482c-1.58454-1.6215-15.7925,12.48-15.29889,15.07867,1.05866,5.57336,13.85959,14.6683,18.04408,18.34165,9.51216,8.35023,30.15048,31.94665,43.68186,19.3361,8.835-8.23377,15.20518-20.099,24.86009-26.88563a12.6738,12.6738,0,0,0,3.78937-3.36485,14.19991,14.19991,0,0,0,1.59094-5.7243q1.59545-12.05966,3.10428-24.13061c.84545-6.77594,3.85585-12.787,5.11881-19.55932.227-1.21705.1652-2.87043-1.02656-3.20576a2.59115,2.59115,0,0,0-1.6652.29643c-4.95067,2.0936-7.61323,5.2718-10.90278,9.32091-6.76488,8.3272-13.29529,16.849-19.463,25.629-3.77212,5.36977-7.55095,10.73722-11.49578,15.98229C95.25565,143.3215,93.78678,145.512,92.07519,146.03074Z"/><path class="aad5f19c-e954-4450-8ea2-d0d196a3fadc" d="M171.53429,213.74115c-.96176,1.23516-.00443,7.09673-.00612,8.59953-.00676,6.00757-.09087,12.01971-.41283,18.019-.292,5.44171-.07189,11.78562-2.34079,16.81326-2.10333,4.66075-6.32161,4.853-8.90918,8.429-3.12027,4.31221-2.67676,14.99849-3.42839,20.32657a353.43714,353.43714,0,0,0-3.22221,42.32731c-.774,34.05585-1.57449,68.14828-2.43614,102.074-4.1791,4.05413-7.54546,2.19327-12.56757,2.2683-1.57678.02355-18.96761.75392-18.69523-1.57787,1.91013-16.35264.2431-32.11458-.19922-48.43387q-.69959-25.81119-.187-51.63514.55405-26.99185,2.45891-53.925c1.24819-17.61857,4.31212-35.46956,4.0876-53.10522q-.03743-2.94058-.00082-5.88153a6.44172,6.44172,0,0,1,.95538-4.01373,4.8363,4.8363,0,0,1,3.9245-1.37369c4.42563.02025,8.70892,1.5717,13.08437,2.287C152.84472,216.444,162.34636,214.59677,171.53429,213.74115Z"/><path class="e3cd128a-1379-4169-a70f-4d0ef57a8d0f" d="M180.56868,203.61191c15.63722-13.97016,24.38249,23.80716,24.92053,33.92525.62087,11.676-3.74543,22.32927-4.86207,33.66956-1.45939,14.82123-4.0895,29.808-3.81585,44.72521.35064,19.11451-.08654,38.24754-.81911,57.34591-.39877,10.39578-.89817,20.7871-1.43514,31.17609q-.392,7.58366-.80522,15.16612c-.13974,2.58962.85218,11.731-1.1124,13.48719a3.44209,3.44209,0,0,1-1.87473.6601,101.49171,101.49171,0,0,1-23.14459.49311,5.29818,5.29818,0,0,1-3.3113-1.05723c-1.02846-.97013-1.17475-2.56587-1.2528-4.0056-2.34615-43.27812-4.16009-86.01086-4.87555-129.29488-.10437-6.31583-.45854-12.61691-.66688-18.92808-.15825-4.79382.57192-9.329-3.03256-12.87717-3.99337-3.931-7.86036-7.45871-11.13853-12.22533a72.30625,72.30625,0,0,1-7.87136-14.9714c-1.9548-5.07589-2.41013-10.5691-4.7429-15.44782-1.58388-3.3125-3.82207-6.53161-3.81292-10.25676"/><path class="a81c58f1-6a68-45c3-ab02-0fb1555b6bd0" d="M122.53492,41.56263c1.66548-11.44342,5.5448-21.4183,18.54342-25.57415,6.67812-2.13509,14.0289-1.4031,20.6489.906a25.92366,25.92366,0,0,1,9.97759,5.82823c3.546,3.5589,5.4548,8.45908,6.44265,13.385,1.87832,9.36614,2.05469,22.91326-3.67857,31.08365-2.03228,2.89619-10.17307,3.79439-9.52882,7.27333.86378,4.66444.8878,12.3856.51827,18.31225-.0666,1.06814-1.09373,2.42878-.55993,3.35636a9.214,9.214,0,0,0,1.851,1.874,8.72449,8.72449,0,0,1,2.27421,7.54935c-.78952,5.41361-5.46935,10.84993-9.12781,14.67422a17.90567,17.90567,0,0,1-7.051,4.9298,2.24735,2.24735,0,0,1-1.457.10925,2.43833,2.43833,0,0,1-1.108-1.12188,54.54959,54.54959,0,0,1-6.41375-15.12058c-.83323-3.2665-1.37619-6.75763-.42941-10.06237.7088-2.47408,2.31241-4.46275,2.64016-7.06347.48954-3.88458-.42942-11.09654-5.26788-11.74508l-9.56578-1.28217c-12.569-1.68472-10.34-20.46315-9.58108-29.34078C121.89276,46.83476,122.15678,44.16085,122.53492,41.56263Z"/><path class="e449dd98-3b2c-429e-83fb-2e22662c1c81" d="M144.04921,92.16457c1.34726.10251,1.545,1.97261,1.86363,2.92556.55891,1.67164,1.47708,3.29966,2.19781,4.90951.72821,1.62656,1.69391,3.45332,3.43851,3.81719a5.4017,5.4017,0,0,0,3.84226-1.17529,68.87469,68.87469,0,0,0,8.31723-6.85173c.40779-.36015,5.69874-5.41324,5.98138-4.83374,1.90315,3.902.63438,9.0592.74746,13.25194q.18716,6.93779.26309,13.878c.10389,9.15873.07485,18.31854-.03736,27.477-.11227,9.16321-.30852,18.32517-.53342,27.48623-.05967,2.4306.1397,27.14931-.70687,27.30885a108.57929,108.57929,0,0,1-37.02254.53735q-.26-12.09038-.05984-24.18481.5263-31.81979,4.22711-63.48122a75.59875,75.59875,0,0,1,2.77216-14.50832c.55369-1.71535,1.73877-4.96207,3.24249-6.01892A2.33178,2.33178,0,0,1,144.04921,92.16457Z"/><path class="e3cd128a-1379-4169-a70f-4d0ef57a8d0f" d="M197.90571,94.74012a100.51831,100.51831,0,0,0-22.841-8.75837c-2.63948-.65719-5.75144-1.10344-7.80493.68037a8.95465,8.95465,0,0,0-2.24655,4.144c-.00009,6.80066-4.252,12.00853-8.06006,17.07475-3.33858,4.44162-5.22009,9.09875-7.41146,14.08477-1.41132-6.03818-1.92977-12.36179-2.63461-18.5191-.55677-4.8639-1.58281-10.61085-.66134-15.46726.1037-.54653-5.06153,1.56372-5.55958,2.02264a18.72,18.72,0,0,0-3.68481,5.86132,35.92824,35.92824,0,0,0-2.25684,8.57275c-1.80757,11.46352-12.6238,18.91205-11.00991,31.36016.65846,5.0788,3.1538,9.502,3.76372,14.54237.72933,6.02706,2.91224,11.73514,3.27387,17.86358.41245,6.98945-1.96739,12.99067-2.612,19.77715q-1.19684,12.601-1.59247,25.2613c-.06934,2.2124.03137,4.76755,1.7717,6.1353,1.64846,1.29556,4.00359.91825,6.06526.537,11.19943-2.0713,21.88444-.31885,32.99353-1.177a184.059,184.059,0,0,0,26.63734-4.20171c-5.16135-24.36193.47871-48.09823,1.391-72.38178l1.75624-46.75109"/><path class="ae580143-fb9e-484c-9fa7-2668f85a2c95" d="M158.49975,75.75362a16.44773,16.44773,0,0,1-8.17241-7.80215c-1.569-3.25208-1.98091-9.19268.94193-11.83316,2.08065-1.87965,3.9175-4.49885,4.09506-7.43719.12008-1.98713-1.07036-4.20611-3.037-4.51591-3.00429-.4732-4.38445,2.55328-6.24513,4.17852-4.2949,3.75144-7.01394-1.56609-9.97034-3.70462a13.32134,13.32134,0,0,0-3.44266-1.59989l-8.34268-2.94672a1.013,1.013,0,0,0-1.59862.98825l-.48755,3.6086c-5.134-10.34978-3.407-24.88078,7.7262-30.46318,3.7738-1.89226,7.79888-2.45775,11.55251-4.52118,7.50146-4.12365,20.64109-1.73623,27.68852,2.65763,11.02263,6.87229,15.617,19.80643,16.28048,32.23449a55.38272,55.38272,0,0,1-.78483,11.34467c-1.00936,6.51479-2.6379,14.28531-7.21927,19.32256a8.91,8.91,0,0,1-8.19689,2.79118c-3.10955-.61864-6.42023-.79831-9.48532-1.80625Q159.14185,76.03225,158.49975,75.75362Z"/><path class="f02396d7-1b54-4b42-b20b-33f38540a12a" d="M149.26836,130.2323q.05889-.49848.12026-.99289c.71581-5.76713.0765-10.02055-1.15129-15.82714a4.16418,4.16418,0,0,0-1.17708-2.51638c.175,9.28451-2.144,18.087-2.70461,27.23445-1.621,26.44992,1.23716,52.80563-1.65319,79.18316a1.013,1.013,0,0,0,.08863.68229.97376.97376,0,0,0,.68.32913,7.823,7.823,0,0,0,3.42744-.19616,1.32059,1.32059,0,0,0,.75157-.43389,1.39971,1.39971,0,0,0,.1873-.72749c.35046-5.38579-.4055-11.06061-.452-16.48617-.07269-8.48925-.14539-16.97921-.04418-25.46867.10216-8.56923.382-17.13536.75051-25.69707a105.16186,105.16186,0,0,1,4.08449-29.42823,18.234,18.234,0,0,0,.91727-5.02356,13.70848,13.70848,0,0,0-4.44261,7.0264,33.98016,33.98016,0,0,0-1.34567-9.838"/><path class="a81c58f1-6a68-45c3-ab02-0fb1555b6bd0" d="M164.48045,181.34755c-6.32885-1.75978-12.6516.68063-19.00848-.585-4.83423-.963-10.02571-.64112-4.62544,4.75184-.06178-.06177-4.91288,1.33917-5.62885,1.38348-2.2064.13653-4.444-.499-6.48294.74674a7.07542,7.07542,0,0,0-3.04559,6.65587c.35862,3.84423,2.92973,7.45079,6.68781,8.26848,14.44091,3.1421,28.88113-4.18143,42.30166-11.34022A14.593,14.593,0,0,0,164.48045,181.34755Z"/><path class="f02396d7-1b54-4b42-b20b-33f38540a12a" d="M200.53612,95.93964c11.31344,10.85669,15.72181,26.92735,18.72981,42.3161,1.8489,9.45885,3.3808,18.99212,4.504,28.5652,2.0977,17.87939-25.3787,23.52688-37.44977,26.9971-8.73537,2.51126-18.06707,2.58809-26.56425,5.87833-2.63578-5.91392-3.652-8.10078-5.006-14.43236-.267-1.24877-.47132-2.67888.30326-3.69414a4.56557,4.56557,0,0,1,1.97609-1.26619c3.98853-1.66148,45.46323-15.38536,44.604-19.222-3.288-14.68192-9.275-28.59188-14.816-42.52027-2.95591-7.43021-10.11983-21.31879-1.12385-26.86028,11.32071-6.97352,21.381,8.63757,23.15686,17.86308"/><path class="ee558885-b62c-4476-bc64-dfffcefe0ff0" d="M184.03174,17.62759,184.5561,16.9a12.29736,12.29736,0,0,0-4.9795-.61368,12.01,12.01,0,0,0-3.15874.32783c-3.22595.93-5.14917,4.62036-4.72468,7.95073a11.501,11.501,0,0,0,5.62873,7.95054,6.16209,6.16209,0,0,0,1.82685.82578c2.37658.54863,4.76026-1.37223,5.60308-3.66107s.54085-4.81964.22758-7.23852l-.67444-5.20766.00637.13306"/><path class="ae580143-fb9e-484c-9fa7-2668f85a2c95" d="M182.06463,38.00986a33.07791,33.07791,0,0,0-.647-7.95672c-1.72732-8.39318-5.97845-18.153.60236-25.57981,5.7132-6.44766,18.96038-4.72283,24.78125.50123a26.934,26.934,0,0,1,8.74627,21.50917A29.28024,29.28024,0,0,1,212.514,37.79509c-1.93694,3.79861-4.6591,7.6733-2.95045,12.18722,1.38839,3.66787,5.4185,5.77667,6.9849,9.37213,2.15175,4.93907-.98009,11.03347,1.2823,15.92285,1.44929,3.13216,4.89447,5.17515,5.737,8.52186.93513,3.71446-.44911,8.61336-1.02554,12.30527.22344-1.43108-5.97911-5.9481-7.30965-6.45709-2.30569-.882-5.28941-.52833-7.73168-.92395-5.985-.9695-13.256-2.55937-16.449-8.3309-2.45333-4.43451-1.628-10.15413-4.19262-14.52523-1.912-3.25884-5.51444-5.39731-6.91969-8.9046-1.84949-4.61608.97524-9.30074,1.63928-13.83943A46.70759,46.70759,0,0,0,182.06463,38.00986Z"/><path class="f02396d7-1b54-4b42-b20b-33f38540a12a" d="M149.07776,219.75555a258.17614,258.17614,0,0,0,2.56939,32.26362c-5.0422-10.1367-6.33953-21.66372-7.55987-32.91926A4.81955,4.81955,0,0,1,144.17,216.998c.55741-1.60267,2.8257-2.126,4.25763-1.21558a4.50172,4.50172,0,0,1,1.73971,4.48334"/><path class="a76f05be-2fec-4009-a7e8-3fc307aa181e" d="M194.56363,200.96341a36.92465,36.92465,0,0,0,1.20816,4.91273c.269.63112,1.76237,2.53833.91892,3.09583a33.17556,33.17556,0,0,1-3.04827,1.88393c-3.31849,1.71965-7.11818,2.53642-10.65178,3.4102q-6.50813,1.60932-13.19372,2.60252a143.84457,143.84457,0,0,1-26.33817,1.46658,66.543,66.543,0,0,1-9.09119-.61728c-2.3167-.407-6.52745-1.80554-7.816-3.62335a4.85028,4.85028,0,0,1-.46932-3.4591c.295-2.56574.49147-5.19336.70949-7.71422.58072.03912,7.22844.761,7.22844.88554,2.25609.42388,4.31776,1.47592,6.60083,1.80727a67.62347,67.62347,0,0,0,10.15288.61129c14.13864-.09883,26.42-3.481,39.02349-8.40938.9443-.36963,2.05842-1.57927,3.13476-1.18072C194.01411,197.03588,194.34976,200.11441,194.56363,200.96341Z"/><path class="aad5f19c-e954-4450-8ea2-d0d196a3fadc" d="M147.22232,151.58676a79.95121,79.95121,0,0,0,13.06655.0925c3.1842-.14157,6.45342.26431,9.56817-.6025-2.62767.73128-4.95409,2.40466-7.43322,3.42539a82.67465,82.67465,0,0,1-9.25271,3.49016c-6.0074,1.667-12.315,1.87736-18.51154,1.96938a7.29271,7.29271,0,0,1-2.63175-.28465c-2.26172-.83-3.107-3.53475-3.59458-5.89408-.41272-1.99695-.57061-4.09022-1.0976-6.05458-.52644-1.96234-1.269-3.90534-1.88563-5.84547a4.1456,4.1456,0,0,1-.24616-1.132c3.28068,3.18743,6.38459,6.96855,10.98034,8.20129a93.96309,93.96309,0,0,0,10.7937,2.60208Q147.10091,151.57207,147.22232,151.58676Z"/></g></g></svg>